<?xml version="1.0" encoding="UTF-8"?>
<svg id="Calque_2" data-name="Calque 2" xmlns="http://www.w3.org/2000/svg" viewBox="0 0 399.19 729.9">
  <defs>
    <style>
      .cls-1 {
        fill: #eefffd;
      }

      .cls-2 {
        fill: #cdf8f6;
      }

      .cls-3 {
        fill: #aeebed;
      }

      .cls-4 {
        fill: #bdf3f3;
      }

      .cls-5 {
        fill: #defffc;
      }
    </style>
  </defs>
  <g id="Calque_8" data-name="Calque 8">
    <g>
      <path class="cls-3" d="m392.35,104.92c-2.6-4.54-15.07-14.39-17.11-14.84-4.52-1.01-9.5.73-12.83,2.7-3.33,1.97-6.3,4.38-10.9,5.26-6.14,1.17-13.05-.98-16.56-4.02s-4.42-6.76-5.25-10.35c-2.04-8.82-4.07-17.63-6.11-26.45-.37-1.62-.8-3.32-2.49-4.66-1.69-1.34-5.09-2.16-7.66-1.37-1.42.43-2.3,1.25-3.12,2.02-4.69,4.43-9.38,8.85-14.07,13.28-10.52-6.6-12.93-15.91-16.38-24.52-3.45-8.62-9.67-17.92-23.84-21.87-3.49-.97-7.39-1.56-11.28-1.4-8.92.38-15.77,4.55-20.35,8.83-16.97,15.83-15.59,35.72-27.74,52.86-1.66,2.34-3.75,4.75-7.54,6.12-8.21,2.96-19.52-.67-24.18-5.47-4.65-4.79-5.35-10.47-9.14-15.5-.8-1.06-1.81-2.14-3.52-2.78-5.55-2.09-12.24,1.69-14.9,5.12-5.02,6.46-7.53,13.59-14.51,19.47-2.23,1.88-5.24,3.71-9.23,4.06-2.28.2-4.6-.12-6.78-.54-15-2.91-25.47-10.57-32.15-18.59s-10.47-16.72-17.33-24.69c-3.82-4.45-10.25-9.18-19.1-9.02-9.16.17-15.08,5.54-17.33,10.49-2.67,5.87-2.66,12-4.41,17.98s-5.71,12.12-14.27,15.86L.46,729.9l380.46-.56,11.43-624.42Z"/>
      <g>
        <g>
          <path class="cls-1" d="m7.07,72.29c3.92-2.37,7.4-5.29,10.12-8.99s3.73-7.96,4.73-12.28c.51-2.2,1.11-4.38,1.79-6.53.33-1.05.69-2.1,1.06-3.14s.69-2.3,1.25-3.28c-.45.78-.05.12.13-.27.16-.35.33-.7.51-1.04.42-.81.89-1.58,1.41-2.33.05-.07.41-.54.07-.11-.37.47.12-.13.21-.24.28-.32.57-.64.88-.94s.66-.6,1-.9c.38-.33-.06.05-.12.09.29-.19.57-.4.86-.58.69-.44,1.57-1.05,2.37-1.26-.74.19-.27.12.17-.04.49-.18.99-.34,1.49-.48.81-.24,1.63-.43,2.46-.6.43-.08.85-.15,1.28-.23.21-.04.87-.09-.08,0,.25-.02.5-.06.75-.08,1.9-.19,3.82-.22,5.72-.09.44.03.88.07,1.32.12.15.02.94.14.33.04-.57-.1.05.01.14.03.95.17,1.89.36,2.82.63.39.11.78.23,1.16.37.22.08,1.18.46.5.17.9.39,1.76.86,2.59,1.39.29.19,1.1.8.41.24.36.29.71.59,1.04.9.61.57,1.11,1.2,1.67,1.81.35.38-.23-.28-.22-.28.11.06.28.39.36.51.21.3.4.6.59.91.43.69.82,1.4,1.18,2.13.82,1.62,1.54,3.3,2.29,4.95,1.15,2.53,2.3,5.07,3.44,7.6,1.06,2.34,1.99,4.73,3.57,6.78,1.78,2.31,4.35,3.92,6.66,5.66s4.49,3.37,6.74,5.05c1.89,1.42,5.11.37,6.16-1.61,1.25-2.36.4-4.64-1.61-6.16s-4.1-3.07-6.15-4.61c-.92-.69-1.85-1.38-2.77-2.08-.06-.05-.83-.65-.48-.37.29.24-.29-.25-.27-.23-.23-.2-.46-.39-.67-.6-.07-.07-.83-.86-.53-.51s-.21-.32-.27-.41c-.11-.17-.21-.35-.32-.53-.26-.47-.49-.95-.71-1.44-.54-1.16-1.06-2.33-1.58-3.49-1.01-2.23-2.03-4.47-3.04-6.7-1.47-3.24-2.79-6.65-4.93-9.52-2.74-3.69-6.2-6.27-10.48-7.94-3.64-1.42-7.74-1.91-11.62-1.87s-8.11.61-11.81,2.05c-4.33,1.69-7.93,4.34-10.55,8.21-2.36,3.47-3.73,7.74-5,11.71-.8,2.51-1.47,5.06-2.06,7.63-.28,1.24-.56,2.47-.91,3.69-.17.58-.35,1.16-.55,1.72-.1.28-.21.58-.33.85.24-.55-.14.23-.23.41-.47.91-1.02,1.76-1.61,2.58.55-.77-.25.29-.46.52-.38.43-.78.85-1.18,1.25s-.86.82-1.31,1.21c-.18.15-1.32,1.07-.69.59-1.04.79-2.13,1.5-3.25,2.18-2.01,1.22-2.94,4.09-1.61,6.16s4,2.92,6.16,1.61h0Z"/>
          <path class="cls-1" d="m80.61,67.2c3.72,3.45,8.04,6.24,12.62,8.41,5.25,2.49,10.87,4.51,16.58,5.63,6.03,1.18,12.4,1.17,16.92-3.59,3.62-3.82,6.55-8.24,9.59-12.51.36-.51.73-1.02,1.1-1.52.19-.25.37-.51.56-.76.12-.16.95-1.24.33-.45.83-1.06,1.69-2.1,2.59-3.1.98-1.09,2-2.14,3.08-3.13.56-.52,1.14-1.02,1.73-1.5.22-.18.44-.36.66-.53-.63.49.72-.51.84-.6,1.91-1.36,3.01-3.99,1.61-6.16-1.22-1.9-4.11-3.07-6.16-1.61-4.6,3.27-8.36,7.17-11.78,11.64-1.41,1.84-2.74,3.74-4.07,5.64-.65.92-1.3,1.84-1.96,2.75-.3.41-.6.81-.9,1.22,0-.01-.74.98-.34.45.33-.43-.39.5-.47.6-.73.91-1.48,1.8-2.27,2.66-.36.39-.71.78-1.09,1.15-.17.16-.34.31-.51.46.79-.67-.08-.01-.29.12-.92.62.41-.04-.15.08-.23.05-.46.15-.7.21-.3.08-.61.13-.91.19.18-.03.92-.07.05-.03-1.36.06-2.7.03-4.04-.14.91.12-.53-.1-.83-.16-.65-.12-1.29-.27-1.94-.42-1.3-.31-2.6-.66-3.88-1.04s-2.49-.77-3.72-1.21c-.67-.24-1.33-.48-1.99-.74-.26-.1-.52-.21-.78-.31-1.28-.51.79.36-.46-.19-2.53-1.11-5-2.36-7.34-3.83-1.04-.65-2.04-1.34-3.03-2.07-.67-.49-.06-.04.07.06-.27-.22-.55-.44-.81-.66-.52-.44-1.03-.89-1.53-1.35-1.73-1.6-4.68-1.84-6.36,0-1.6,1.74-1.84,4.65,0,6.36h0Z"/>
          <path class="cls-1" d="m146.6,53.88c.18-.08.37-.16.55-.25.62-.31-.61.21.06-.03.4-.14.79-.3,1.2-.42.48-.15.98-.29,1.48-.36-.74.09.6.06.82.04.66-.06-.56-.2.05,0,.18.06.4.1.58.14.8.18-.35-.28.33.1.21.12.4.23.61.35s.35.41.07.04c-.47-.63.49.76.02.08.44.64.18.29.08.04.08.19.13.38.2.57.14.44.26.89.4,1.34.32,1.05.75,2.06,1.18,3.07.67,1.54,1.5,3,2.48,4.37,4.66,6.52,11.79,12.32,19.85,13.72s18.24.4,23.86-6.35,9.5-13.93,12.47-21.87c1.47-3.93,2.58-7.95,3.64-12,.54-2.04,1.1-4.07,1.87-6.03.08-.19.15-.39.23-.58-.19.43-.1.24.05-.07.25-.51.49-1.01.76-1.51.24-.44.5-.88.77-1.3.16-.25.32-.49.49-.74.06-.09.63-.86.24-.36,1.44-1.85,1.94-4.58,0-6.36-1.61-1.48-4.82-1.98-6.36,0-2.7,3.47-4.56,7.22-5.85,11.43-1.07,3.51-1.86,7.1-2.96,10.6-.56,1.79-1.18,3.56-1.85,5.31-.18.46-.36.91-.54,1.37-.31.77.13-.28-.2.48-.4.91-.81,1.82-1.24,2.71-1.72,3.58-3.75,7.01-6.08,10.23-.13.19-.27.37-.41.55-.05.07-.61.82-.34.47.24-.31-.23.29-.22.28-.15.18-.29.37-.44.55-.57.71-1.16,1.4-1.82,2.03-.15.14-.3.27-.45.41.14-.13.67-.43-.09.06-.35.23-.72.45-1.09.65-.27.14-1.06.41-.36.18-.53.17-1.04.37-1.58.52-.9.26-1.81.46-2.72.61-.21.04-.42.07-.64.1.2-.03.82-.08-.1,0-.51.05-1.02.09-1.53.12-.95.05-1.91.06-2.86.02-.44-.02-.87-.05-1.31-.09-.29-.03-.58-.05-.86-.09.47.06.27.04-.08-.03-.92-.18-1.83-.38-2.73-.66-.49-.15-.96-.33-1.44-.5.7.26-.42-.2-.64-.3-1.55-.76-3.01-1.71-4.37-2.76.49.38-.36-.3-.49-.41-.39-.33-.77-.66-1.15-1-.73-.66-1.43-1.35-2.09-2.07-.32-.35-.64-.7-.94-1.07-.18-.21-.73-.95-.28-.33-.52-.73-1.04-1.46-1.49-2.23-.25-.43-.49-.86-.72-1.3-.08-.16-.16-.33-.24-.49-.04-.09-.38-.81-.14-.29s-.01-.04-.05-.13c-.1-.28-.21-.55-.3-.83-.14-.42-.26-.84-.39-1.27-.8-2.68-2.1-4.87-4.4-6.5-2.04-1.44-4.81-2.14-7.29-2.02-2.8.14-5.24,1.09-7.75,2.25-2.15.99-2.84,4.25-1.61,6.16,1.43,2.21,3.86,2.67,6.16,1.61h0Z"/>
          <path class="cls-1" d="m222.61,22.49c.02-.51-.01-.43-.09.24.04-.21.08-.42.15-.63.18-.91-.45.66.06-.16.11-.17.95-1.42.3-.58.24-.3.5-.59.76-.87.67-.71,1.4-1.33,2.13-1.96.41-.33.45-.36.11-.1.18-.13.35-.27.53-.4.42-.31.84-.61,1.26-.91,3-2.12,6.1-4.15,9.46-5.68.19-.09.39-.17.58-.26-.42.18-.38.16.12-.04.41-.15.82-.31,1.24-.46.95-.33,1.92-.62,2.9-.87.89-.22,1.78-.38,2.69-.54q.53-.08,0,0c.2-.02.4-.05.6-.07.47-.05.94-.09,1.42-.11.94-.06,1.89-.07,2.84-.04.4.01.8.03,1.2.06.2.01,1.87.22.76.05.87.13,1.74.3,2.58.54.35.1.69.2,1.03.32.22.08.44.16.66.25-.54-.23-.59-.25-.13-.04,2.12,1,4.95.66,6.16-1.61,1.06-2,.66-5.08-1.61-6.16-8.66-4.1-19.1-2.63-27.57,1.21-3.88,1.76-7.49,4.17-10.89,6.72-3.98,2.98-8.22,6.7-8.23,12.1,0,2.35,2.07,4.61,4.5,4.5s4.49-1.98,4.5-4.5h0Z"/>
          <path class="cls-1" d="m254.52,10.13c1.64.3,3.24.74,4.78,1.37-.9-.37.14.08.33.17.34.16.67.34,1,.52.64.35,1.26.73,1.86,1.13.29.2.58.41.87.6.85.58-.53-.46.18.13.51.43,1.02.85,1.52,1.3,1.26,1.15,2.44,2.38,3.58,3.64.61.68,1.2,1.37,1.78,2.07.28.35.57.69.84,1.05.19.24.18.23-.02-.03.13.18.27.35.4.53,1.04,1.39,2.02,2.82,2.96,4.29,1.85,2.89,3.49,5.9,5.04,8.96,1.07,2.1,4.2,2.88,6.16,1.61,2.15-1.39,2.75-3.91,1.61-6.16-3.46-6.83-7.53-13.34-12.72-19.01-4.82-5.27-10.62-9.52-17.78-10.84-2.31-.43-4.96.63-5.54,3.14-.5,2.21.67,5.08,3.14,5.54h0Z"/>
          <path class="cls-1" d="m278.75,35.08c.58,4.21,3.15,7.92,5.9,11.03,2.9,3.28,6.34,6.05,9.72,8.8,2.31,1.87,5.37,1.71,7.07-.91.38-.58.78-1.14,1.18-1.7-.35.49-.24.31.06-.06.23-.28.46-.55.7-.82.9-1.03,1.87-2,2.88-2.92.53-.48,1.07-.95,1.63-1.4.06-.05,1.09-.85.35-.29.33-.25.65-.49.98-.73,1.26-.9,2.56-1.75,3.89-2.54.69-.41,1.4-.8,2.11-1.19.33-.18.66-.35.99-.52.11-.06,1.21-.47.41-.21.42-.13.81-.27,1.24-.37-.63.14,0,.04.33.02.34.01.29.01-.15-.01.43.14.46.15.11.02-.19-.16-.87-.75-.45-.23-.77-.95-.24-.27-.07-.02.49.74-.46-1.31.03.07.26.75.55,1.48.81,2.23.62,1.78,1.17,3.57,1.68,5.38.64,2.26,3.21,3.89,5.54,3.14s3.83-3.11,3.14-5.54c-.59-2.11-1.26-4.21-2-6.27-.68-1.9-1.31-3.88-2.76-5.35-3.87-3.92-9.37-2.28-13.59,0-6.6,3.57-12.68,8.42-16.8,14.76l7.07-.91c-3.18-2.58-6.38-5.18-9.17-8.19-.28-.3-.55-.61-.82-.92-.11-.13-1.13-1.43-.55-.64-.53-.71-1.03-1.45-1.47-2.22-.18-.32-.34-.65-.51-.97-.21-.46-.21-.43.02.09-.09-.22-.17-.44-.25-.66-.26-.77-.44-1.55-.55-2.35-.32-2.34-3.43-3.82-5.54-3.14-2.57.83-3.49,3.03-3.14,5.54h0Z"/>
          <path class="cls-1" d="m319.76,48.27c1.46,3.71,2.71,7.5,3.68,11.37.46,1.82.85,3.66,1.19,5.51.17.92.31,1.84.45,2.76.23,1.5-.09-.86.09.65.07.56.13,1.11.2,1.67.52,4.07,1.59,7.64,4.37,10.76,2.52,2.82,5.92,4.68,9.37,6.09,7.26,2.95,15.24,2.18,21.77-2.15,1.39-.92,2.7-1.97,4.06-2.94.7-.5,1.41-.97,2.14-1.41.39-.23.78-.45,1.18-.65.22-.11.44-.22.66-.32-.49.2-.5.21-.01.01.77-.26,1.53-.52,2.32-.72.41-.1.82-.17,1.23-.26,1.29-.26-.84-.01.48-.05.71-.02,1.41-.07,2.12-.03.14,0,1.44.24.47.03.55.11,1.07.27,1.61.41,1.13.3-.61-.43.34.15.41.25.81.47,1.21.74-1.32-.89,1.75,1.56.39.37.67.58,1.08,1.8,1.46,2.58.42.85.82,1.71,1.35,2.5,2.31,3.46,5.7,6.03,9.41,7.83,2.11,1.03,4.96.65,6.16-1.61,1.07-2.02.65-5.06-1.61-6.16-.78-.38-1.55-.78-2.29-1.23-.35-.21-.7-.44-1.04-.67-.09-.06-1.15-.86-.37-.24-.59-.47-1.14-.97-1.66-1.51-.25-.26-.47-.53-.71-.79.73.81-.06-.09-.2-.32-.87-1.34-1.41-2.86-2.24-4.22-1.05-1.71-2.35-3.05-3.96-4.22-6.23-4.53-15.48-2.87-21.58,1.03-2.73,1.74-5.13,3.97-8.07,5.39.02,0-1.14.49-.53.25s-.62.22-.59.21c-.79.27-1.59.49-2.41.66-.1.02-1.46.18-.51.1-.44.04-.88.07-1.32.08s-.91,0-1.36-.03c-.3-.02-.6-.05-.9-.08.46.06.41.04-.13-.05-.71-.17-1.41-.31-2.11-.52-.4-.12-.8-.25-1.2-.4-.04-.02-1.3-.51-.5-.17-1.62-.68-3.18-1.57-4.6-2.6.83.61-.12-.12-.24-.22-.18-.16-.35-.32-.52-.48-.25-.24-.49-.49-.72-.74-.17-.19-.74-1.07-.12-.12-.17-.27-.36-.52-.52-.79-.02-.03-.65-1.35-.32-.53-.38-.92-.59-1.92-.75-2.89-.02-.1-.2-1.48-.08-.48-.05-.42-.1-.84-.15-1.25-.16-1.32-.34-2.64-.55-3.96-.34-2.16-.77-4.31-1.27-6.43-1-4.19-2.32-8.29-3.9-12.29-.86-2.18-3.05-3.95-5.54-3.14-2.12.69-4.07,3.19-3.14,5.54h0Z"/>
        </g>
        <g>
          <path class="cls-5" d="m7.07,76.74c3.92-2.37,7.4-5.29,10.12-8.99s3.73-7.96,4.73-12.28c.51-2.2,1.11-4.38,1.79-6.53.33-1.05.69-2.1,1.06-3.14s.69-2.3,1.25-3.28c-.45.78-.05.12.13-.27.16-.35.33-.7.51-1.04.42-.81.89-1.58,1.41-2.33.05-.07.41-.54.07-.11-.37.47.12-.13.21-.24.28-.32.57-.64.88-.94s.66-.6,1-.9c.38-.33-.06.05-.12.09.29-.19.57-.4.86-.58.69-.44,1.57-1.05,2.37-1.26-.74.19-.27.12.17-.04.49-.18.99-.34,1.49-.48.81-.24,1.63-.43,2.46-.6.43-.08.85-.15,1.28-.23.21-.04.87-.09-.08,0,.25-.02.5-.06.75-.08,1.9-.19,3.82-.22,5.72-.09.44.03.88.07,1.32.12.15.02.94.14.33.04-.57-.1.05.01.14.03.95.17,1.89.36,2.82.63.39.11.78.23,1.16.37.22.08,1.18.46.5.17.9.39,1.76.86,2.59,1.39.29.19,1.1.8.41.24.36.29.71.59,1.04.9.61.57,1.11,1.2,1.67,1.81.35.38-.23-.28-.22-.28.11.06.28.39.36.51.21.3.4.6.59.91.43.69.82,1.4,1.18,2.13.82,1.62,1.54,3.3,2.29,4.95,1.15,2.53,2.3,5.07,3.44,7.6,1.06,2.34,1.99,4.73,3.57,6.78,1.78,2.31,4.35,3.92,6.66,5.66s4.49,3.37,6.74,5.05c1.89,1.42,5.11.37,6.16-1.61,1.25-2.36.4-4.64-1.61-6.16s-4.1-3.07-6.15-4.61c-.92-.69-1.85-1.38-2.77-2.08-.06-.05-.83-.65-.48-.37.29.24-.29-.25-.27-.23-.23-.2-.46-.39-.67-.6-.07-.07-.83-.86-.53-.51s-.21-.32-.27-.41c-.11-.17-.21-.35-.32-.53-.26-.47-.49-.95-.71-1.44-.54-1.16-1.06-2.33-1.58-3.49-1.01-2.23-2.03-4.47-3.04-6.7-1.47-3.24-2.79-6.65-4.93-9.52-2.74-3.69-6.2-6.27-10.48-7.94-3.64-1.42-7.74-1.91-11.62-1.87s-8.11.61-11.81,2.05c-4.33,1.69-7.93,4.34-10.55,8.21-2.36,3.47-3.73,7.74-5,11.71-.8,2.51-1.47,5.06-2.06,7.63-.28,1.24-.56,2.47-.91,3.69-.17.58-.35,1.16-.55,1.72-.1.28-.21.58-.33.85.24-.55-.14.23-.23.41-.47.91-1.02,1.76-1.61,2.58.55-.77-.25.29-.46.52-.38.43-.78.85-1.18,1.25s-.86.82-1.31,1.21c-.18.15-1.32,1.07-.69.59-1.04.79-2.13,1.5-3.25,2.18-2.01,1.22-2.94,4.09-1.61,6.16s4,2.92,6.16,1.61h0Z"/>
          <path class="cls-5" d="m80.61,71.66c3.72,3.45,8.04,6.24,12.62,8.41,5.25,2.49,10.87,4.51,16.58,5.63,6.03,1.18,12.4,1.17,16.92-3.59,3.62-3.82,6.55-8.24,9.59-12.51.36-.51.73-1.02,1.1-1.52.19-.25.37-.51.56-.76.12-.16.95-1.24.33-.45.83-1.06,1.69-2.1,2.59-3.1.98-1.09,2-2.14,3.08-3.13.56-.52,1.14-1.02,1.73-1.5.22-.18.44-.36.66-.53-.63.49.72-.51.84-.6,1.91-1.36,3.01-3.99,1.61-6.16-1.22-1.9-4.11-3.07-6.16-1.61-4.6,3.27-8.36,7.17-11.78,11.64-1.41,1.84-2.74,3.74-4.07,5.64-.65.92-1.3,1.84-1.96,2.75-.3.41-.6.81-.9,1.22,0-.01-.74.98-.34.45.33-.43-.39.5-.47.6-.73.91-1.48,1.8-2.27,2.66-.36.39-.71.78-1.09,1.15-.17.16-.34.31-.51.46.79-.67-.08-.01-.29.12-.92.62.41-.04-.15.08-.23.05-.46.15-.7.21-.3.08-.61.13-.91.19.18-.03.92-.07.05-.03-1.36.06-2.7.03-4.04-.14.91.12-.53-.1-.83-.16-.65-.12-1.29-.27-1.94-.42-1.3-.31-2.6-.66-3.88-1.04s-2.49-.77-3.72-1.21c-.67-.24-1.33-.48-1.99-.74-.26-.1-.52-.21-.78-.31-1.28-.51.79.36-.46-.19-2.53-1.11-5-2.36-7.34-3.83-1.04-.65-2.04-1.34-3.03-2.07-.67-.49-.06-.04.07.06-.27-.22-.55-.44-.81-.66-.52-.44-1.03-.89-1.53-1.35-1.73-1.6-4.68-1.84-6.36,0-1.6,1.74-1.84,4.65,0,6.36h0Z"/>
          <path class="cls-5" d="m146.6,58.33c.18-.08.37-.16.55-.25.62-.31-.61.21.06-.03.4-.14.79-.3,1.2-.42.48-.15.98-.29,1.48-.36-.74.09.6.06.82.04.66-.06-.56-.2.05,0,.18.06.4.1.58.14.8.18-.35-.28.33.1.21.12.4.23.61.35s.35.41.07.04c-.47-.63.49.76.02.08.44.64.18.29.08.04.08.19.13.38.2.57.14.44.26.89.4,1.34.32,1.05.75,2.06,1.18,3.07.67,1.54,1.5,3,2.48,4.37,4.66,6.52,11.79,12.32,19.85,13.72s18.24.4,23.86-6.35,9.5-13.93,12.47-21.87c1.47-3.93,2.58-7.95,3.64-12,.54-2.04,1.1-4.07,1.87-6.03.08-.19.15-.39.23-.58-.19.43-.1.24.05-.07.25-.51.49-1.01.76-1.51.24-.44.5-.88.77-1.3.16-.25.32-.49.49-.74.06-.09.63-.86.24-.36,1.44-1.85,1.94-4.58,0-6.36-1.61-1.48-4.82-1.98-6.36,0-2.7,3.47-4.56,7.22-5.85,11.43-1.07,3.51-1.86,7.1-2.96,10.6-.56,1.79-1.18,3.56-1.85,5.31-.18.46-.36.91-.54,1.37-.31.77.13-.28-.2.48-.4.91-.81,1.82-1.24,2.71-1.72,3.58-3.75,7.01-6.08,10.23-.13.19-.27.37-.41.55-.05.07-.61.82-.34.47.24-.31-.23.29-.22.28-.15.18-.29.37-.44.55-.57.71-1.16,1.4-1.82,2.03-.15.14-.3.27-.45.41.14-.13.67-.43-.09.06-.35.23-.72.45-1.09.65-.27.14-1.06.41-.36.18-.53.17-1.04.37-1.58.52-.9.26-1.81.46-2.72.61-.21.04-.42.07-.64.1.2-.03.82-.08-.1,0-.51.05-1.02.09-1.53.12-.95.05-1.91.06-2.86.02-.44-.02-.87-.05-1.31-.09-.29-.03-.58-.05-.86-.09.47.06.27.04-.08-.03-.92-.18-1.83-.38-2.73-.66-.49-.15-.96-.33-1.44-.5.7.26-.42-.2-.64-.3-1.55-.76-3.01-1.71-4.37-2.76.49.38-.36-.3-.49-.41-.39-.33-.77-.66-1.15-1-.73-.66-1.43-1.35-2.09-2.07-.32-.35-.64-.7-.94-1.07-.18-.21-.73-.95-.28-.33-.52-.73-1.04-1.46-1.49-2.23-.25-.43-.49-.86-.72-1.3-.08-.16-.16-.33-.24-.49-.04-.09-.38-.81-.14-.29s-.01-.04-.05-.13c-.1-.28-.21-.55-.3-.83-.14-.42-.26-.84-.39-1.27-.8-2.68-2.1-4.87-4.4-6.5-2.04-1.44-4.81-2.14-7.29-2.02-2.8.14-5.24,1.09-7.75,2.25-2.15.99-2.84,4.25-1.61,6.16,1.43,2.21,3.86,2.67,6.16,1.61h0Z"/>
          <path class="cls-5" d="m222.61,26.94c.02-.51-.01-.43-.09.24.04-.21.08-.42.15-.63.18-.91-.45.66.06-.16.11-.17.95-1.42.3-.58.24-.3.5-.59.76-.87.67-.71,1.4-1.33,2.13-1.96.41-.33.45-.36.11-.1.18-.13.35-.27.53-.4.42-.31.84-.61,1.26-.91,3-2.12,6.1-4.15,9.46-5.68.19-.09.39-.17.58-.26-.42.18-.38.16.12-.04.41-.15.82-.31,1.24-.46.95-.33,1.92-.62,2.9-.87.89-.22,1.78-.38,2.69-.54q.53-.08,0,0c.2-.02.4-.05.6-.07.47-.05.94-.09,1.42-.11.94-.06,1.89-.07,2.84-.04.4.01.8.03,1.2.06.2.01,1.87.22.76.05.87.13,1.74.3,2.58.54.35.1.69.2,1.03.32.22.08.44.16.66.25-.54-.23-.59-.25-.13-.04,2.12,1,4.95.66,6.16-1.61,1.06-2,.66-5.08-1.61-6.16-8.66-4.1-19.1-2.63-27.57,1.21-3.88,1.76-7.49,4.17-10.89,6.72-3.98,2.98-8.22,6.7-8.23,12.1,0,2.35,2.07,4.61,4.5,4.5s4.49-1.98,4.5-4.5h0Z"/>
          <path class="cls-5" d="m254.52,14.58c1.64.3,3.24.74,4.78,1.37-.9-.37.14.08.33.17.34.16.67.34,1,.52.64.35,1.26.73,1.86,1.13.29.2.58.41.87.6.85.58-.53-.46.18.13.51.43,1.02.85,1.52,1.3,1.26,1.15,2.44,2.38,3.58,3.64.61.68,1.2,1.37,1.78,2.07.28.35.57.69.84,1.05.19.24.18.23-.02-.03.13.18.27.35.4.53,1.04,1.39,2.02,2.82,2.96,4.29,1.85,2.89,3.49,5.9,5.04,8.96,1.07,2.1,4.2,2.88,6.16,1.61,2.15-1.39,2.75-3.91,1.61-6.16-3.46-6.83-7.53-13.34-12.72-19.01-4.82-5.27-10.62-9.52-17.78-10.84-2.31-.43-4.96.63-5.54,3.14-.5,2.21.67,5.08,3.14,5.54h0Z"/>
          <path class="cls-5" d="m278.75,39.54c.58,4.21,3.15,7.92,5.9,11.03,2.9,3.28,6.34,6.05,9.72,8.8,2.31,1.87,5.37,1.71,7.07-.91.38-.58.78-1.14,1.18-1.7-.35.49-.24.31.06-.06.23-.28.46-.55.7-.82.9-1.03,1.87-2,2.88-2.92.53-.48,1.07-.95,1.63-1.4.06-.05,1.09-.85.35-.29.33-.25.65-.49.98-.73,1.26-.9,2.56-1.75,3.89-2.54.69-.41,1.4-.8,2.11-1.19.33-.18.66-.35.99-.52.11-.06,1.21-.47.41-.21.42-.13.81-.27,1.24-.37-.63.14,0,.04.33.02.34.01.29.01-.15-.01.43.14.46.15.11.02-.19-.16-.87-.75-.45-.23-.77-.95-.24-.27-.07-.02.49.74-.46-1.31.03.07.26.75.55,1.48.81,2.23.62,1.78,1.17,3.57,1.68,5.38.64,2.26,3.21,3.89,5.54,3.14s3.83-3.11,3.14-5.54c-.59-2.11-1.26-4.21-2-6.27-.68-1.9-1.31-3.88-2.76-5.35-3.87-3.92-9.37-2.28-13.59,0-6.6,3.57-12.68,8.42-16.8,14.76l7.07-.91c-3.18-2.58-6.38-5.18-9.17-8.19-.28-.3-.55-.61-.82-.92-.11-.13-1.13-1.43-.55-.64-.53-.71-1.03-1.45-1.47-2.22-.18-.32-.34-.65-.51-.97-.21-.46-.21-.43.02.09-.09-.22-.17-.44-.25-.66-.26-.77-.44-1.55-.55-2.35-.32-2.34-3.43-3.82-5.54-3.14-2.57.83-3.49,3.03-3.14,5.54h0Z"/>
          <path class="cls-5" d="m319.76,52.72c1.46,3.71,2.71,7.5,3.68,11.37.46,1.82.85,3.66,1.19,5.51.17.92.31,1.84.45,2.76.23,1.5-.09-.86.09.65.07.56.13,1.11.2,1.67.52,4.07,1.59,7.64,4.37,10.76,2.52,2.82,5.92,4.68,9.37,6.09,7.26,2.95,15.24,2.18,21.77-2.15,1.39-.92,2.7-1.97,4.06-2.94.7-.5,1.41-.97,2.14-1.41.39-.23.78-.45,1.18-.65.22-.11.44-.22.66-.32-.49.2-.5.21-.01.01.77-.26,1.53-.52,2.32-.72.41-.1.82-.17,1.23-.26,1.29-.26-.84-.01.48-.05.71-.02,1.41-.07,2.12-.03.14,0,1.44.24.47.03.55.11,1.07.27,1.61.41,1.13.3-.61-.43.34.15.41.25.81.47,1.21.74-1.32-.89,1.75,1.56.39.37.67.58,1.08,1.8,1.46,2.58.42.85.82,1.71,1.35,2.5,2.31,3.46,5.7,6.03,9.41,7.83,2.11,1.03,4.96.65,6.16-1.61,1.07-2.02.65-5.06-1.61-6.16-.78-.38-1.55-.78-2.29-1.23-.35-.21-.7-.44-1.04-.67-.09-.06-1.15-.86-.37-.24-.59-.47-1.14-.97-1.66-1.51-.25-.26-.47-.53-.71-.79.73.81-.06-.09-.2-.32-.87-1.34-1.41-2.86-2.24-4.22-1.05-1.71-2.35-3.05-3.96-4.22-6.23-4.53-15.48-2.87-21.58,1.03-2.73,1.74-5.13,3.97-8.07,5.39.02,0-1.14.49-.53.25s-.62.22-.59.21c-.79.27-1.59.49-2.41.66-.1.02-1.46.18-.51.1-.44.04-.88.07-1.32.08s-.91,0-1.36-.03c-.3-.02-.6-.05-.9-.08.46.06.41.04-.13-.05-.71-.17-1.41-.31-2.11-.52-.4-.12-.8-.25-1.2-.4-.04-.02-1.3-.51-.5-.17-1.62-.68-3.18-1.57-4.6-2.6.83.61-.12-.12-.24-.22-.18-.16-.35-.32-.52-.48-.25-.24-.49-.49-.72-.74-.17-.19-.74-1.07-.12-.12-.17-.27-.36-.52-.52-.79-.02-.03-.65-1.35-.32-.53-.38-.92-.59-1.92-.75-2.89-.02-.1-.2-1.48-.08-.48-.05-.42-.1-.84-.15-1.25-.16-1.32-.34-2.64-.55-3.96-.34-2.16-.77-4.31-1.27-6.43-1-4.19-2.32-8.29-3.9-12.29-.86-2.18-3.05-3.95-5.54-3.14-2.12.69-4.07,3.19-3.14,5.54h0Z"/>
        </g>
        <g>
          <path class="cls-2" d="m8.24,81.44c3.92-2.37,7.4-5.29,10.12-8.99s3.73-7.96,4.73-12.28c.51-2.2,1.11-4.38,1.79-6.53.33-1.05.69-2.1,1.06-3.14s.69-2.3,1.25-3.28c-.45.78-.05.12.13-.27.16-.35.33-.7.51-1.04.42-.81.89-1.58,1.41-2.33.05-.07.41-.54.07-.11-.37.47.12-.13.21-.24.28-.32.57-.64.88-.94s.66-.6,1-.9c.38-.33-.06.05-.12.09.29-.19.57-.4.86-.58.69-.44,1.57-1.05,2.37-1.26-.74.19-.27.12.17-.04.49-.18.99-.34,1.49-.48.81-.24,1.63-.43,2.46-.6.43-.08.85-.15,1.28-.23.21-.04.87-.09-.08,0,.25-.02.5-.06.75-.08,1.9-.19,3.82-.22,5.72-.09.44.03.88.07,1.32.12.15.02.94.14.33.04-.57-.1.05.01.14.03.95.17,1.89.36,2.82.63.39.11.78.23,1.16.37.22.08,1.18.46.5.17.9.39,1.76.86,2.59,1.39.29.19,1.1.8.41.24.36.29.71.59,1.04.9.61.57,1.11,1.2,1.67,1.81.35.38-.23-.28-.22-.28.11.06.28.39.36.51.21.3.4.6.59.91.43.69.82,1.4,1.18,2.13.82,1.62,1.54,3.3,2.29,4.95,1.15,2.53,2.3,5.07,3.44,7.6,1.06,2.34,1.99,4.73,3.57,6.78,1.78,2.31,4.35,3.92,6.66,5.66s4.49,3.37,6.74,5.05c1.89,1.42,5.11.37,6.16-1.61,1.25-2.36.4-4.64-1.61-6.16s-4.1-3.07-6.15-4.61c-.92-.69-1.85-1.38-2.77-2.08-.06-.05-.83-.65-.48-.37.29.24-.29-.25-.27-.23-.23-.2-.46-.39-.67-.6-.07-.07-.83-.86-.53-.51s-.21-.32-.27-.41c-.11-.17-.21-.35-.32-.53-.26-.47-.49-.95-.71-1.44-.54-1.16-1.06-2.33-1.58-3.49-1.01-2.23-2.03-4.47-3.04-6.7-1.47-3.24-2.79-6.65-4.93-9.52-2.74-3.69-6.2-6.27-10.48-7.94-3.64-1.42-7.74-1.91-11.62-1.87s-8.11.61-11.81,2.05c-4.33,1.69-7.93,4.34-10.55,8.21-2.36,3.47-3.73,7.74-5,11.71-.8,2.51-1.47,5.06-2.06,7.63-.28,1.24-.56,2.47-.91,3.69-.17.58-.35,1.16-.55,1.72-.1.28-.21.58-.33.85.24-.55-.14.23-.23.41-.47.91-1.02,1.76-1.61,2.58.55-.77-.25.29-.46.52-.38.43-.78.85-1.18,1.25s-.86.82-1.31,1.21c-.18.15-1.32,1.07-.69.59-1.04.79-2.13,1.5-3.25,2.18-2.01,1.22-2.94,4.09-1.61,6.16s4,2.92,6.16,1.61h0Z"/>
          <path class="cls-2" d="m81.79,76.35c3.72,3.45,8.04,6.24,12.62,8.41,5.25,2.49,10.87,4.51,16.58,5.63,6.03,1.18,12.4,1.17,16.92-3.59,3.62-3.82,6.55-8.24,9.59-12.51.36-.51.73-1.02,1.1-1.52.19-.25.37-.51.56-.76.12-.16.95-1.24.33-.45.83-1.06,1.69-2.1,2.59-3.1.98-1.09,2-2.14,3.08-3.13.56-.52,1.14-1.02,1.73-1.5.22-.18.44-.36.66-.53-.63.49.72-.51.84-.6,1.91-1.36,3.01-3.99,1.61-6.16-1.22-1.9-4.11-3.07-6.16-1.61-4.6,3.27-8.36,7.17-11.78,11.64-1.41,1.84-2.74,3.74-4.07,5.64-.65.92-1.3,1.84-1.96,2.75-.3.41-.6.81-.9,1.22,0-.01-.74.98-.34.45.33-.43-.39.5-.47.6-.73.91-1.48,1.8-2.27,2.66-.36.39-.71.78-1.09,1.15-.17.16-.34.31-.51.46.79-.67-.08-.01-.29.12-.92.62.41-.04-.15.08-.23.05-.46.15-.7.21-.3.08-.61.13-.91.19.18-.03.92-.07.05-.03-1.36.06-2.7.03-4.04-.14.91.12-.53-.1-.83-.16-.65-.12-1.29-.27-1.94-.42-1.3-.31-2.6-.66-3.88-1.04s-2.49-.77-3.72-1.21c-.67-.24-1.33-.48-1.99-.74-.26-.1-.52-.21-.78-.31-1.28-.51.79.36-.46-.19-2.53-1.11-5-2.36-7.34-3.83-1.04-.65-2.04-1.34-3.03-2.07-.67-.49-.06-.04.07.06-.27-.22-.55-.44-.81-.66-.52-.44-1.03-.89-1.53-1.35-1.73-1.6-4.68-1.84-6.36,0-1.6,1.74-1.84,4.65,0,6.36h0Z"/>
          <path class="cls-2" d="m147.78,63.03c.18-.08.37-.16.55-.25.62-.31-.61.21.06-.03.4-.14.79-.3,1.2-.42.48-.15.98-.29,1.48-.36-.74.09.6.06.82.04.66-.06-.56-.2.05,0,.18.06.4.1.58.14.8.18-.35-.28.33.1.21.12.4.23.61.35s.35.41.07.04c-.47-.63.49.76.02.08.44.64.18.29.08.04.08.19.13.38.2.57.14.44.26.89.4,1.34.32,1.05.75,2.06,1.18,3.07.67,1.54,1.5,3,2.48,4.37,4.66,6.52,11.79,12.32,19.85,13.72s18.24.4,23.86-6.35,9.5-13.93,12.47-21.87c1.47-3.93,2.58-7.95,3.64-12,.54-2.04,1.1-4.07,1.87-6.03.08-.19.15-.39.23-.58-.19.43-.1.24.05-.07.25-.51.49-1.01.76-1.51.24-.44.5-.88.77-1.3.16-.25.32-.49.49-.74.06-.09.63-.86.24-.36,1.44-1.85,1.94-4.58,0-6.36-1.61-1.48-4.82-1.98-6.36,0-2.7,3.47-4.56,7.22-5.85,11.43-1.07,3.51-1.86,7.1-2.96,10.6-.56,1.79-1.18,3.56-1.85,5.31-.18.46-.36.91-.54,1.37-.31.77.13-.28-.2.48-.4.91-.81,1.82-1.24,2.71-1.72,3.58-3.75,7.01-6.08,10.23-.13.19-.27.37-.41.55-.05.07-.61.82-.34.47.24-.31-.23.29-.22.28-.15.18-.29.37-.44.55-.57.71-1.16,1.4-1.82,2.03-.15.14-.3.27-.45.41.14-.13.67-.43-.09.06-.35.23-.72.45-1.09.65-.27.14-1.06.41-.36.18-.53.17-1.04.37-1.58.52-.9.26-1.81.46-2.72.61-.21.04-.42.07-.64.1.2-.03.82-.08-.1,0-.51.05-1.02.09-1.53.12-.95.05-1.91.06-2.86.02-.44-.02-.87-.05-1.31-.09-.29-.03-.58-.05-.86-.09.47.06.27.04-.08-.03-.92-.18-1.83-.38-2.73-.66-.49-.15-.96-.33-1.44-.5.7.26-.42-.2-.64-.3-1.55-.76-3.01-1.71-4.37-2.76.49.38-.36-.3-.49-.41-.39-.33-.77-.66-1.15-1-.73-.66-1.43-1.35-2.09-2.07-.32-.35-.64-.7-.94-1.07-.18-.21-.73-.95-.28-.33-.52-.73-1.04-1.46-1.49-2.23-.25-.43-.49-.86-.72-1.3-.08-.16-.16-.33-.24-.49-.04-.09-.38-.81-.14-.29s-.01-.04-.05-.13c-.1-.28-.21-.55-.3-.83-.14-.42-.26-.84-.39-1.27-.8-2.68-2.1-4.87-4.4-6.5-2.04-1.44-4.81-2.14-7.29-2.02-2.8.14-5.24,1.09-7.75,2.25-2.15.99-2.84,4.25-1.61,6.16,1.43,2.21,3.86,2.67,6.16,1.61h0Z"/>
          <path class="cls-2" d="m223.79,31.64c.02-.51-.01-.43-.09.24.04-.21.08-.42.15-.63.18-.91-.45.66.06-.16.11-.17.95-1.42.3-.58.24-.3.5-.59.76-.87.67-.71,1.4-1.33,2.13-1.96.41-.33.45-.36.11-.1.18-.13.35-.27.53-.4.42-.31.84-.61,1.26-.91,3-2.12,6.1-4.15,9.46-5.68.19-.09.39-.17.58-.26-.42.18-.38.16.12-.04.41-.15.82-.31,1.24-.46.95-.33,1.92-.62,2.9-.87.89-.22,1.78-.38,2.69-.54q.53-.08,0,0c.2-.02.4-.05.6-.07.47-.05.94-.09,1.42-.11.94-.06,1.89-.07,2.84-.04.4.01.8.03,1.2.06.2.01,1.87.22.76.05.87.13,1.74.3,2.58.54.35.1.69.2,1.03.32.22.08.44.16.66.25-.54-.23-.59-.25-.13-.04,2.12,1,4.95.66,6.16-1.61,1.06-2,.66-5.08-1.61-6.16-8.66-4.1-19.1-2.63-27.57,1.21-3.88,1.76-7.49,4.17-10.89,6.72-3.98,2.98-8.22,6.7-8.23,12.1,0,2.35,2.07,4.61,4.5,4.5s4.49-1.98,4.5-4.5h0Z"/>
          <path class="cls-2" d="m255.69,19.28c1.64.3,3.24.74,4.78,1.37-.9-.37.14.08.33.17.34.16.67.34,1,.52.64.35,1.26.73,1.86,1.13.29.2.58.41.87.6.85.58-.53-.46.18.13.51.43,1.02.85,1.52,1.3,1.26,1.15,2.44,2.38,3.58,3.64.61.68,1.2,1.37,1.78,2.07.28.35.57.69.84,1.05.19.24.18.23-.02-.03.13.18.27.35.4.53,1.04,1.39,2.02,2.82,2.96,4.29,1.85,2.89,3.49,5.9,5.04,8.96,1.07,2.1,4.2,2.88,6.16,1.61,2.15-1.39,2.75-3.91,1.61-6.16-3.46-6.83-7.53-13.34-12.72-19.01-4.82-5.27-10.62-9.52-17.78-10.84-2.31-.43-4.96.63-5.54,3.14-.5,2.21.67,5.08,3.14,5.54h0Z"/>
          <path class="cls-2" d="m279.93,44.23c.58,4.21,3.15,7.92,5.9,11.03,2.9,3.28,6.34,6.05,9.72,8.8,2.31,1.87,5.37,1.71,7.07-.91.38-.58.78-1.14,1.18-1.7-.35.49-.24.31.06-.06.23-.28.46-.55.7-.82.9-1.03,1.87-2,2.88-2.92.53-.48,1.07-.95,1.63-1.4.06-.05,1.09-.85.35-.29.33-.25.65-.49.98-.73,1.26-.9,2.56-1.75,3.89-2.54.69-.41,1.4-.8,2.11-1.19.33-.18.66-.35.99-.52.11-.06,1.21-.47.41-.21.42-.13.81-.27,1.24-.37-.63.14,0,.04.33.02.34.01.29.01-.15-.01.43.14.46.15.11.02-.19-.16-.87-.75-.45-.23-.77-.95-.24-.27-.07-.02.49.74-.46-1.31.03.07.26.75.55,1.48.81,2.23.62,1.78,1.17,3.57,1.68,5.38.64,2.26,3.21,3.89,5.54,3.14s3.83-3.11,3.14-5.54c-.59-2.11-1.26-4.21-2-6.27-.68-1.9-1.31-3.88-2.76-5.35-3.87-3.92-9.37-2.28-13.59,0-6.6,3.57-12.68,8.42-16.8,14.76l7.07-.91c-3.18-2.58-6.38-5.18-9.17-8.19-.28-.3-.55-.61-.82-.92-.11-.13-1.13-1.43-.55-.64-.53-.71-1.03-1.45-1.47-2.22-.18-.32-.34-.65-.51-.97-.21-.46-.21-.43.02.09-.09-.22-.17-.44-.25-.66-.26-.77-.44-1.55-.55-2.35-.32-2.34-3.43-3.82-5.54-3.14-2.57.83-3.49,3.03-3.14,5.54h0Z"/>
          <path class="cls-2" d="m320.93,57.42c1.46,3.71,2.71,7.5,3.68,11.37.46,1.82.85,3.66,1.19,5.51.17.92.31,1.84.45,2.76.23,1.5-.09-.86.09.65.07.56.13,1.11.2,1.67.52,4.07,1.59,7.64,4.37,10.76,2.52,2.82,5.92,4.68,9.37,6.09,7.26,2.95,15.24,2.18,21.77-2.15,1.39-.92,2.7-1.97,4.06-2.94.7-.5,1.41-.97,2.14-1.41.39-.23.78-.45,1.18-.65.22-.11.44-.22.66-.32-.49.2-.5.21-.01.01.77-.26,1.53-.52,2.32-.72.41-.1.82-.17,1.23-.26,1.29-.26-.84-.01.48-.05.71-.02,1.41-.07,2.12-.03.14,0,1.44.24.47.03.55.11,1.07.27,1.61.41,1.13.3-.61-.43.34.15.41.25.81.47,1.21.74-1.32-.89,1.75,1.56.39.37.67.58,1.08,1.8,1.46,2.58.42.85.82,1.71,1.35,2.5,2.31,3.46,5.7,6.03,9.41,7.83,2.11,1.03,4.96.65,6.16-1.61,1.07-2.02.65-5.06-1.61-6.16-.78-.38-1.55-.78-2.29-1.23-.35-.21-.7-.44-1.04-.67-.09-.06-1.15-.86-.37-.24-.59-.47-1.14-.97-1.66-1.51-.25-.26-.47-.53-.71-.79.73.81-.06-.09-.2-.32-.87-1.34-1.41-2.86-2.24-4.22-1.05-1.71-2.35-3.05-3.96-4.22-6.23-4.53-15.48-2.87-21.58,1.03-2.73,1.74-5.13,3.97-8.07,5.39.02,0-1.14.49-.53.25s-.62.22-.59.21c-.79.27-1.59.49-2.41.66-.1.02-1.46.18-.51.1-.44.04-.88.07-1.32.08s-.91,0-1.36-.03c-.3-.02-.6-.05-.9-.08.46.06.41.04-.13-.05-.71-.17-1.41-.31-2.11-.52-.4-.12-.8-.25-1.2-.4-.04-.02-1.3-.51-.5-.17-1.62-.68-3.18-1.57-4.6-2.6.83.61-.12-.12-.24-.22-.18-.16-.35-.32-.52-.48-.25-.24-.49-.49-.72-.74-.17-.19-.74-1.07-.12-.12-.17-.27-.36-.52-.52-.79-.02-.03-.65-1.35-.32-.53-.38-.92-.59-1.92-.75-2.89-.02-.1-.2-1.48-.08-.48-.05-.42-.1-.84-.15-1.25-.16-1.32-.34-2.64-.55-3.96-.34-2.16-.77-4.31-1.27-6.43-1-4.19-2.32-8.29-3.9-12.29-.86-2.18-3.05-3.95-5.54-3.14-2.12.69-4.07,3.19-3.14,5.54h0Z"/>
        </g>
        <g>
          <path class="cls-4" d="m6.78,86.24c3.92-2.37,7.4-5.29,10.12-8.99s3.73-7.96,4.73-12.28c.51-2.2,1.11-4.38,1.79-6.53.33-1.05.69-2.1,1.06-3.14s.69-2.3,1.25-3.28c-.45.78-.05.12.13-.27.16-.35.33-.7.51-1.04.42-.81.89-1.58,1.41-2.33.05-.07.41-.54.07-.11-.37.47.12-.13.21-.24.28-.32.57-.64.88-.94s.66-.6,1-.9c.38-.33-.06.05-.12.09.29-.19.57-.4.86-.58.69-.44,1.57-1.05,2.37-1.26-.74.19-.27.12.17-.04.49-.18.99-.34,1.49-.48.81-.24,1.63-.43,2.46-.6.43-.08.85-.15,1.28-.23.21-.04.87-.09-.08,0,.25-.02.5-.06.75-.08,1.9-.19,3.82-.22,5.72-.09.44.03.88.07,1.32.12.15.02.94.14.33.04-.57-.1.05.01.14.03.95.17,1.89.36,2.82.63.39.11.78.23,1.16.37.22.08,1.18.46.5.17.9.39,1.76.86,2.59,1.39.29.19,1.1.8.41.24.36.29.71.59,1.04.9.61.57,1.11,1.2,1.67,1.81.35.38-.23-.28-.22-.28.11.06.28.39.36.51.21.3.4.6.59.91.43.69.82,1.4,1.18,2.13.82,1.62,1.54,3.3,2.29,4.95,1.15,2.53,2.3,5.07,3.44,7.6,1.06,2.34,1.99,4.73,3.57,6.78,1.78,2.31,4.35,3.92,6.66,5.66s4.49,3.37,6.74,5.05c1.89,1.42,5.11.37,6.16-1.61,1.25-2.36.4-4.64-1.61-6.16s-4.1-3.07-6.15-4.61c-.92-.69-1.85-1.38-2.77-2.08-.06-.05-.83-.65-.48-.37.29.24-.29-.25-.27-.23-.23-.2-.46-.39-.67-.6-.07-.07-.83-.86-.53-.51s-.21-.32-.27-.41c-.11-.17-.21-.35-.32-.53-.26-.47-.49-.95-.71-1.44-.54-1.16-1.06-2.33-1.58-3.49-1.01-2.23-2.03-4.47-3.04-6.7-1.47-3.24-2.79-6.65-4.93-9.52-2.74-3.69-6.2-6.27-10.48-7.94-3.64-1.42-7.74-1.91-11.62-1.87s-8.11.61-11.81,2.05c-4.33,1.69-7.93,4.34-10.55,8.21-2.36,3.47-3.73,7.74-5,11.71-.8,2.51-1.47,5.06-2.06,7.63-.28,1.24-.56,2.47-.91,3.69-.17.58-.35,1.16-.55,1.72-.1.28-.21.58-.33.85.24-.55-.14.23-.23.41-.47.91-1.02,1.76-1.61,2.58.55-.77-.25.29-.46.52-.38.43-.78.85-1.18,1.25s-.86.82-1.31,1.21c-.18.15-1.32,1.07-.69.59-1.04.79-2.13,1.5-3.25,2.18-2.01,1.22-2.94,4.09-1.61,6.16s4,2.92,6.16,1.61h0Z"/>
          <path class="cls-4" d="m80.33,81.15c3.72,3.45,8.04,6.24,12.62,8.41,5.25,2.49,10.87,4.51,16.58,5.63,6.03,1.18,12.4,1.17,16.92-3.59,3.62-3.82,6.55-8.24,9.59-12.51.36-.51.73-1.02,1.1-1.52.19-.25.37-.51.56-.76.12-.16.95-1.24.33-.45.83-1.06,1.69-2.1,2.59-3.1.98-1.09,2-2.14,3.08-3.13.56-.52,1.14-1.02,1.73-1.5.22-.18.44-.36.66-.53-.63.49.72-.51.84-.6,1.91-1.36,3.01-3.99,1.61-6.16-1.22-1.9-4.11-3.07-6.16-1.61-4.6,3.27-8.36,7.17-11.78,11.64-1.41,1.84-2.74,3.74-4.07,5.64-.65.92-1.3,1.84-1.96,2.75-.3.41-.6.81-.9,1.22,0-.01-.74.98-.34.45.33-.43-.39.5-.47.6-.73.91-1.48,1.8-2.27,2.66-.36.39-.71.78-1.09,1.15-.17.16-.34.31-.51.46.79-.67-.08-.01-.29.12-.92.62.41-.04-.15.08-.23.05-.46.15-.7.21-.3.08-.61.13-.91.19.18-.03.92-.07.05-.03-1.36.06-2.7.03-4.04-.14.91.12-.53-.1-.83-.16-.65-.12-1.29-.27-1.94-.42-1.3-.31-2.6-.66-3.88-1.04s-2.49-.77-3.72-1.21c-.67-.24-1.33-.48-1.99-.74-.26-.1-.52-.21-.78-.31-1.28-.51.79.36-.46-.19-2.53-1.11-5-2.36-7.34-3.83-1.04-.65-2.04-1.34-3.03-2.07-.67-.49-.06-.04.07.06-.27-.22-.55-.44-.81-.66-.52-.44-1.03-.89-1.53-1.35-1.73-1.6-4.68-1.84-6.36,0-1.6,1.74-1.84,4.65,0,6.36h0Z"/>
          <path class="cls-4" d="m146.32,67.83c.18-.08.37-.16.55-.25.62-.31-.61.21.06-.03.4-.14.79-.3,1.2-.42.48-.15.98-.29,1.48-.36-.74.09.6.06.82.04.66-.06-.56-.2.05,0,.18.06.4.1.58.14.8.18-.35-.28.33.1.21.12.4.23.61.35s.35.41.07.04c-.47-.63.49.76.02.08.44.64.18.29.08.04.08.19.13.38.2.57.14.44.26.89.4,1.34.32,1.05.75,2.06,1.18,3.07.67,1.54,1.5,3,2.48,4.37,4.66,6.52,11.79,12.32,19.85,13.72,8.17,1.42,18.24.4,23.86-6.35s9.5-13.93,12.47-21.87c1.47-3.93,2.58-7.95,3.64-12,.54-2.04,1.1-4.07,1.87-6.03.08-.19.15-.39.23-.58-.19.43-.1.24.05-.07.25-.51.49-1.01.76-1.51.24-.44.5-.88.77-1.3.16-.25.32-.49.49-.74.06-.09.63-.86.24-.36,1.44-1.85,1.94-4.58,0-6.36-1.61-1.48-4.82-1.98-6.36,0-2.7,3.47-4.56,7.22-5.85,11.43-1.07,3.51-1.86,7.1-2.96,10.6-.56,1.79-1.18,3.56-1.85,5.31-.18.46-.36.91-.54,1.37-.31.77.13-.28-.2.48-.4.91-.81,1.82-1.24,2.71-1.72,3.58-3.75,7.01-6.08,10.23-.13.19-.27.37-.41.55-.05.07-.61.82-.34.47.24-.31-.23.29-.22.28-.15.18-.29.37-.44.55-.57.71-1.16,1.4-1.82,2.03-.15.14-.3.27-.45.41.14-.13.67-.43-.09.06-.35.23-.72.45-1.09.65-.27.14-1.06.41-.36.18-.53.17-1.04.37-1.58.52-.9.26-1.81.46-2.72.61-.21.04-.42.07-.64.1.2-.03.82-.08-.1,0-.51.05-1.02.09-1.53.12-.95.05-1.91.06-2.86.02-.44-.02-.87-.05-1.31-.09-.29-.03-.58-.05-.86-.09.47.06.27.04-.08-.03-.92-.18-1.83-.38-2.73-.66-.49-.15-.96-.33-1.44-.5.7.26-.42-.2-.64-.3-1.55-.76-3.01-1.71-4.37-2.76.49.38-.36-.3-.49-.41-.39-.33-.77-.66-1.15-1-.73-.66-1.43-1.35-2.09-2.07-.32-.35-.64-.7-.94-1.07-.18-.21-.73-.95-.28-.33-.52-.73-1.04-1.46-1.49-2.23-.25-.43-.49-.86-.72-1.3-.08-.16-.16-.33-.24-.49-.04-.09-.38-.81-.14-.29s-.01-.04-.05-.13c-.1-.28-.21-.55-.3-.83-.14-.42-.26-.84-.39-1.27-.8-2.68-2.1-4.87-4.4-6.5-2.04-1.44-4.81-2.14-7.29-2.02-2.8.14-5.24,1.09-7.75,2.25-2.15.99-2.84,4.25-1.61,6.16,1.43,2.21,3.86,2.67,6.16,1.61h0Z"/>
          <path class="cls-4" d="m222.33,36.44c.02-.51-.01-.43-.09.24.04-.21.08-.42.15-.63.18-.91-.45.66.06-.16.11-.17.95-1.42.3-.58.24-.3.5-.59.76-.87.67-.71,1.4-1.33,2.13-1.96.41-.33.45-.36.11-.1.18-.13.35-.27.53-.4.42-.31.84-.61,1.26-.91,3-2.12,6.1-4.15,9.46-5.68.19-.09.39-.17.58-.26-.42.18-.38.16.12-.04.41-.15.82-.31,1.24-.46.95-.33,1.92-.62,2.9-.87.89-.22,1.78-.38,2.69-.54q.53-.08,0,0c.2-.02.4-.05.6-.07.47-.05.94-.09,1.42-.11.94-.06,1.89-.07,2.84-.04.4.01.8.03,1.2.06.2.01,1.87.22.76.05.87.13,1.74.3,2.58.54.35.1.69.2,1.03.32.22.08.44.16.66.25-.54-.23-.59-.25-.13-.04,2.12,1,4.95.66,6.16-1.61,1.06-2,.66-5.08-1.61-6.16-8.66-4.1-19.1-2.63-27.57,1.21-3.88,1.76-7.49,4.17-10.89,6.72-3.98,2.98-8.22,6.7-8.23,12.1,0,2.35,2.07,4.61,4.5,4.5s4.49-1.98,4.5-4.5h0Z"/>
          <path class="cls-4" d="m254.23,24.08c1.64.3,3.24.74,4.78,1.37-.9-.37.14.08.33.17.34.16.67.34,1,.52.64.35,1.26.73,1.86,1.13.29.2.58.41.87.6.85.58-.53-.46.18.13.51.43,1.02.85,1.52,1.3,1.26,1.15,2.44,2.38,3.58,3.64.61.68,1.2,1.37,1.78,2.07.28.35.57.69.84,1.05.19.24.18.23-.02-.03.13.18.27.35.4.53,1.04,1.39,2.02,2.82,2.96,4.29,1.85,2.89,3.49,5.9,5.04,8.96,1.07,2.1,4.2,2.88,6.16,1.61,2.15-1.39,2.75-3.91,1.61-6.16-3.46-6.83-7.53-13.34-12.72-19.01-4.82-5.27-10.62-9.52-17.78-10.84-2.31-.43-4.96.63-5.54,3.14-.5,2.21.67,5.08,3.14,5.54h0Z"/>
          <path class="cls-4" d="m278.47,49.03c.58,4.21,3.15,7.92,5.9,11.03,2.9,3.28,6.34,6.05,9.72,8.8,2.31,1.87,5.37,1.71,7.07-.91.38-.58.78-1.14,1.18-1.7-.35.49-.24.31.06-.06.23-.28.46-.55.7-.82.9-1.03,1.87-2,2.88-2.92.53-.48,1.07-.95,1.63-1.4.06-.05,1.09-.85.35-.29.33-.25.65-.49.98-.73,1.26-.9,2.56-1.75,3.89-2.54.69-.41,1.4-.8,2.11-1.19.33-.18.66-.35.99-.52.11-.06,1.21-.47.41-.21.42-.13.81-.27,1.24-.37-.63.14,0,.04.33.02.34.01.29.01-.15-.01.43.14.46.15.11.02-.19-.16-.87-.75-.45-.23-.77-.95-.24-.27-.07-.02.49.74-.46-1.31.03.07.26.75.55,1.48.81,2.23.62,1.78,1.17,3.57,1.68,5.38.64,2.26,3.21,3.89,5.54,3.14s3.83-3.11,3.14-5.54c-.59-2.11-1.26-4.21-2-6.27-.68-1.9-1.31-3.88-2.76-5.35-3.87-3.92-9.37-2.28-13.59,0-6.6,3.57-12.68,8.42-16.8,14.76l7.07-.91c-3.18-2.58-6.38-5.18-9.17-8.19-.28-.3-.55-.61-.82-.92-.11-.13-1.13-1.43-.55-.64-.53-.71-1.03-1.45-1.47-2.22-.18-.32-.34-.65-.51-.97-.21-.46-.21-.43.02.09-.09-.22-.17-.44-.25-.66-.26-.77-.44-1.55-.55-2.35-.32-2.34-3.43-3.82-5.54-3.14-2.57.83-3.49,3.03-3.14,5.54h0Z"/>
          <path class="cls-4" d="m319.47,62.22c1.46,3.71,2.71,7.5,3.68,11.37.46,1.82.85,3.66,1.19,5.51.17.92.31,1.84.45,2.76.23,1.5-.09-.86.09.65.07.56.13,1.11.2,1.67.52,4.07,1.59,7.64,4.37,10.76,2.52,2.82,5.92,4.68,9.37,6.09,7.26,2.95,15.24,2.18,21.77-2.15,1.39-.92,2.7-1.97,4.06-2.94.7-.5,1.41-.97,2.14-1.41.39-.23.78-.45,1.18-.65.22-.11.44-.22.66-.32-.49.2-.5.21-.01.01.77-.26,1.53-.52,2.32-.72.41-.1.82-.17,1.23-.26,1.29-.26-.84-.01.48-.05.71-.02,1.41-.07,2.12-.03.14,0,1.44.24.47.03.55.11,1.07.27,1.61.41,1.13.3-.61-.43.34.15.41.25.81.47,1.21.74-1.32-.89,1.75,1.56.39.37.67.58,1.08,1.8,1.46,2.58.42.85.82,1.71,1.35,2.5,2.31,3.46,5.7,6.03,9.41,7.83,2.11,1.03,4.96.65,6.16-1.61,1.07-2.02.65-5.06-1.61-6.16-.78-.38-1.55-.78-2.29-1.23-.35-.21-.7-.44-1.04-.67-.09-.06-1.15-.86-.37-.24-.59-.47-1.14-.97-1.66-1.51-.25-.26-.47-.53-.71-.79.73.81-.06-.09-.2-.32-.87-1.34-1.41-2.86-2.24-4.22-1.05-1.71-2.35-3.05-3.96-4.22-6.23-4.53-15.48-2.87-21.58,1.03-2.73,1.74-5.13,3.97-8.07,5.39.02,0-1.14.49-.53.25s-.62.22-.59.21c-.79.27-1.59.49-2.41.66-.1.02-1.46.18-.51.1-.44.04-.88.07-1.32.08s-.91,0-1.36-.03c-.3-.02-.6-.05-.9-.08.46.06.41.04-.13-.05-.71-.17-1.41-.31-2.11-.52-.4-.12-.8-.25-1.2-.4-.04-.02-1.3-.51-.5-.17-1.62-.68-3.18-1.57-4.6-2.6.83.61-.12-.12-.24-.22-.18-.16-.35-.32-.52-.48-.25-.24-.49-.49-.72-.74-.17-.19-.74-1.07-.12-.12-.17-.27-.36-.52-.52-.79-.02-.03-.65-1.35-.32-.53-.38-.92-.59-1.92-.75-2.89-.02-.1-.2-1.48-.08-.48-.05-.42-.1-.84-.15-1.25-.16-1.32-.34-2.64-.55-3.96-.34-2.16-.77-4.31-1.27-6.43-1-4.19-2.32-8.29-3.9-12.29-.86-2.18-3.05-3.95-5.54-3.14-2.12.69-4.07,3.19-3.14,5.54h0Z"/>
        </g>
      </g>
    </g>
  </g>
</svg>