<?xml version="1.0" encoding="UTF-8"?>
<svg id="Calque_2" data-name="Calque 2" xmlns="http://www.w3.org/2000/svg" viewBox="0 0 393.24 1447.79">
  <defs>
    <style>
      .cls-1 {
        fill: #eefffd;
      }

      .cls-2 {
        fill: #cdf8f6;
      }

      .cls-3 {
        fill: #aeebed;
      }

      .cls-4 {
        fill: #bdf3f3;
      }

      .cls-5 {
        fill: #defffc;
      }
    </style>
  </defs>
  <g id="Calque_8" data-name="Calque 8">
    <g>
      <path class="cls-3" d="m386.4,204.18c-2.56-9.03-14.84-28.63-16.85-29.54-4.45-2-9.35,1.45-12.63,5.38-3.28,3.93-6.2,8.72-10.74,10.46-6.05,2.33-12.86-1.95-16.31-8s-4.36-13.46-5.17-20.59c-2-17.54-4.01-35.09-6.01-52.63-.37-3.23-.79-6.6-2.45-9.26-1.67-2.66-5.01-4.3-7.55-2.73-1.4.86-2.27,2.48-3.08,4.02-4.62,8.81-9.23,17.61-13.85,26.42-10.36-13.14-12.73-31.65-16.13-48.8-3.4-17.14-9.52-35.67-23.48-43.53-3.43-1.93-7.28-3.11-11.11-2.78-8.78.76-15.53,9.05-20.04,17.56-16.71,31.49-15.36,71.07-27.32,105.19-1.63,4.66-3.69,9.45-7.43,12.18-8.08,5.9-19.23-1.34-23.81-10.88-4.58-9.54-5.27-20.84-9-30.84-.79-2.11-1.78-4.25-3.47-5.53-5.46-4.16-12.05,3.37-14.67,10.18-4.94,12.86-7.42,27.05-14.29,38.74-2.19,3.73-5.16,7.38-9.09,8.07-2.24.39-4.53-.24-6.67-1.08-14.77-5.79-25.08-21.04-31.66-37-6.58-15.96-10.31-33.27-17.06-49.14-3.76-8.85-10.1-18.27-18.81-17.94-9.03.34-14.85,11.02-17.06,20.87-2.63,11.68-2.62,23.89-4.35,35.77-1.73,11.89-5.62,24.12-14.05,31.55L.48,1447.79l374.67-1.11,11.26-1242.5Z"/>
      <g>
        <g>
          <path class="cls-1" d="m7.93,134.7c4.27-5.18,7.52-10.94,9.76-17.28,2.34-6.65,3.12-13.7,3.9-20.67.19-1.69.38-3.37.59-5.06.1-.81.2-1.62.31-2.43.21-1.59-.12.84.1-.74.07-.48.13-.97.2-1.45.51-3.55,1.07-7.09,1.7-10.62.58-3.27,1.18-6.54,1.94-9.77.32-1.35.67-2.7,1.07-4.03.22-.73.45-1.45.7-2.16.11-.32.23-.64.35-.96.1-.25.2-.51.3-.76-.19.45-.19.43.02-.05.56-1.21,1.15-2.4,1.86-3.54.35-.56.72-1.1,1.11-1.63-.59.79.2-.23.28-.32.24-.28.5-.56.76-.82.5-.51,1.04-.99,1.59-1.44-.13.1-.74.51-.06.07.29-.19.58-.4.88-.58.5-.31,1.01-.59,1.53-.84.2-.1,1.26-.48.2-.1.33-.11.65-.24.98-.35.6-.2,1.21-.36,1.83-.49.24-.05.6-.19.84-.16-1.06-.12-.19.03.16,0,.57-.05,1.14-.06,1.7-.05.28,0,.57.02.85.04.17.01.34.03.51.04.51.06.45.05-.18-.03.44-.09,1.22.24,1.66.37.33.09.66.19.98.31.04.01,1.08.43.42.15s.37.19.4.2c.31.16.61.32.91.5.2.12.4.24.59.37.2.13.39.26.58.4-.44-.35-.46-.36-.07-.05.91.79,1.74,1.63,2.52,2.54s-.5-.76.18.23c.17.25.35.49.52.75.41.61.79,1.24,1.14,1.88.33.6.64,1.21.94,1.82.11.23.21.46.32.68.54,1.13-.32-.85.14.32.52,1.32.99,2.65,1.42,4.01,1.91,6.14,3.1,12.52,4.5,18.79.87,3.88,1.74,7.76,2.61,11.64s1.49,7.85,2.9,11.53,3.62,6.82,5.77,10.08,4.47,6.78,6.71,10.17c1.3,1.96,4.04,2.98,6.16,1.61,1.96-1.26,3-4.06,1.61-6.16-2.06-3.12-4.12-6.24-6.18-9.35-1.85-2.8-3.87-5.54-5.32-8.57-.59-1.23.19.73-.23-.6-.14-.44-.3-.86-.43-1.3-.22-.73-.42-1.47-.6-2.22-.46-1.87-.86-3.76-1.28-5.64-.8-3.56-1.6-7.12-2.39-10.67-1.48-6.61-2.77-13.3-4.6-19.82-1.66-5.9-4.02-11.78-8.23-16.35s-10.13-7.01-16.2-6.64-12.02,3.19-15.92,7.99c-4.22,5.19-6.36,11.58-7.79,18.04-1.54,6.96-2.67,14.04-3.63,21.1-.58,4.25-1.06,8.51-1.55,12.77-.11.96-.23,1.91-.35,2.87.11-.83-.1.73-.1.71-.09.63-.19,1.27-.29,1.9-.31,1.89-.68,3.76-1.15,5.62s-1.02,3.6-1.67,5.36c-.12.33-.25.66-.38.99-.08.2-.16.4-.24.59.18-.42.17-.39-.04.1-.34.77-.7,1.54-1.08,2.3-.81,1.63-1.71,3.22-2.69,4.75-.45.7-.92,1.39-1.4,2.07-.24.34-.49.67-.74,1,.54-.71-.48.58-.58.71-1.49,1.81-1.91,4.61,0,6.36,1.65,1.52,4.77,1.94,6.36,0h0Z"/>
          <path class="cls-1" d="m78.66,125.06c3.43,6.45,7.96,12.41,13.38,17.32,2.72,2.47,5.68,4.73,8.81,6.67s6.45,3.79,9.99,4.55c4.33.92,9.06.18,12.03-3.39,2.64-3.16,4.08-7.28,5.6-11.06,2.8-6.93,5.06-14.06,7.62-21.08.72-1.97,1.46-3.94,2.25-5.89.18-.45.37-.9.55-1.35.2-.48-.02.04-.05.11.14-.32.27-.64.41-.96.41-.95.84-1.9,1.28-2.83,1.76-3.72,3.76-7.31,6.12-10.68,1.35-1.94.42-5.08-1.61-6.16-2.3-1.22-4.71-.45-6.16,1.61-8.16,11.69-12.01,25.68-16.84,38.92-.58,1.59-1.17,3.17-1.79,4.74-.31.78-.63,1.56-.94,2.34-.52,1.28.35-.8-.2.47-.22.51-.44,1.02-.67,1.53-.66,1.48-1.31,3.04-2.28,4.35.58-.78-.24.19-.32.28l-.29.26c.4-.31.39-.33-.03-.05l-.33.17c.52-.21.54-.22.06-.06-.23.07-.47.12-.71.17.6-.07.63-.08.11-.04-.37-.02-.74-.01-1.11-.03-1.17-.04.83.27-.31-.06-.75-.22-1.5-.43-2.25-.66-1.21-.39.77.39-.37-.14-.35-.16-.7-.33-1.04-.5-.8-.4-1.59-.82-2.36-1.26-1.34-.76-2.65-1.58-3.92-2.45-.64-.44-1.26-.9-1.89-1.36-1.03-.77.68.57-.32-.25-.4-.33-.81-.66-1.21-.99-2.82-2.38-5.4-5.04-7.72-7.92-.06-.08-.88-1.12-.28-.35-.33-.43-.64-.86-.96-1.29-.55-.76-1.08-1.54-1.6-2.33-1.04-1.59-1.99-3.23-2.89-4.9-1.11-2.08-4.17-2.89-6.16-1.61-2.12,1.36-2.8,3.93-1.61,6.16h0Z"/>
          <path class="cls-1" d="m145.34,98.06c.5-.46,1-.93,1.53-1.36-.63.51.05-.02.23-.13.28-.18.57-.33.85-.49-.67.38-.25.12-.01.04,1.03-.34-.8-.1.29,0-.13-.01-1.03-.1-.2.02-.54-.26-.59-.28-.14-.05l.3.18c-.84-.45-.05-.04.19.2.17.17.33.36.49.55-.58-.71-.08-.04.04.17.16.27.3.55.44.83-.35-.7-.03-.07.02.1.13.43.27.85.38,1.28.19.73.33,1.46.45,2.2,1,5.91,2.03,11.64,4.16,17.28s4.81,11.08,8.4,15.9c1.94,2.62,4.05,4.93,6.74,6.81s5.94,2.85,9.22,3.07c6.59.45,13.14-2.84,16.85-8.23,1.76-2.55,2.84-5.58,3.95-8.45s2.17-5.83,3.13-8.78c3.89-11.93,6.52-24.25,8.49-36.64.58-3.67,1.1-7.35,1.59-11.03.23-1.75.46-3.51.68-5.27.11-.84.22-1.68.33-2.52-.1.76.03-.22.06-.4.07-.53.15-1.07.23-1.6.98-6.77,2.3-13.53,4.79-19.93.85-2.2-.94-5.03-3.14-5.54-2.58-.59-4.62.79-5.54,3.14-2.21,5.68-3.5,11.64-4.44,17.65-.52,3.28-.94,6.58-1.37,9.88-.18,1.37-.35,2.74-.53,4.11-.2,1.51.06-.44-.06.44-.05.39-.11.78-.16,1.17-.12.86-.24,1.72-.36,2.58-1.78,12.28-4.13,24.5-7.64,36.41-.86,2.91-1.78,5.81-2.79,8.67-.51,1.47-1.05,2.92-1.6,4.38-.28.72-.56,1.45-.85,2.17-.11.28-.22.55-.33.83-.52,1.29.37-.78-.21.49s-1.24,2.49-1.99,3.69c-.09.14-.53.64-.04.07-.18.21-.36.42-.55.62-.28.3-.59.57-.89.85-.67.62.46-.23-.39.28-.58.35-1.15.68-1.75,1-.13.07-.77.33-.05.04-.33.13-.66.25-1,.36-.61.2-1.22.33-1.85.47-1.26.28.49.03-.27.04-.49,0-.98.07-1.47.06-.28,0-.56-.02-.84-.03-1.28-.03.48.15-.26-.02-.62-.14-1.23-.26-1.84-.45.06.02-1.2-.48-.65-.23s-.62-.34-.59-.32c-.23-.13-.46-.26-.68-.4-.13-.08-1.21-.84-.84-.56.51.39-.5-.44-.47-.41-.2-.18-.4-.36-.59-.55-.49-.47-.96-.96-1.41-1.48-.18-.21-.36-.42-.53-.63-.05-.06-.87-1.14-.32-.4-.41-.56-.82-1.13-1.2-1.7-1.61-2.39-3.04-4.9-4.3-7.49-.32-.65-.63-1.32-.93-1.98-.12-.27-.24-.53-.35-.8.3.7-.07-.17-.14-.34-.58-1.43-1.11-2.88-1.59-4.34-1.01-3.09-1.81-6.26-2.38-9.47-.62-3.51-.87-7-2.36-10.28-1.38-3.06-4.12-5.85-7.51-6.5-4.32-.84-7.79,1.6-10.79,4.39-1.73,1.61-1.75,4.76,0,6.36,1.85,1.7,4.52,1.71,6.36,0h0Z"/>
          <path class="cls-1" d="m219.32,40.15c0-.5,0-.99.04-1.49.01-.2.12-1.27.07-.87-.08.55.06-.31.08-.44.04-.21.08-.41.12-.61.12-.54.26-1.08.41-1.62.12-.4.25-.8.38-1.19.07-.2.14-.39.21-.59.04-.11.35-.92.16-.44-.17.44.09-.2.1-.23.09-.19.17-.38.26-.57.24-.51.49-1.01.75-1.51,1.8-3.42,4.06-6.59,6.35-9.69.26-.35.51-.69.77-1.03.53-.71.2-.26.08-.11.13-.17.26-.34.4-.51.62-.78,1.25-1.55,1.91-2.3,1.29-1.47,2.65-2.88,4.14-4.15.15-.13.94-.77.67-.55-.41.31.27-.19.37-.26.17-.12.33-.24.5-.35.77-.52,1.56-1,2.39-1.41.16-.08.34-.15.5-.24.58-.32-.68.24-.06.02.35-.12.69-.26,1.04-.37.88-.29,1.77-.46,2.67-.65-.9.19.04,0,.43-.02.48-.03.96-.03,1.44-.02.18,0,.36.01.54.03.15.01,1.13.18.47.04-.56-.12.6.14.8.19.46.12.9.3,1.36.43-.05-.01-.71-.34-.25-.11.27.14.54.26.8.4.37.21.71.46,1.07.67.55.32-.5-.48-.04-.03.22.22.47.42.69.63,1.7,1.63,4.7,1.82,6.36,0s1.81-4.62,0-6.36c-6.8-6.53-17.26-6.03-24.76-.97-3.83,2.58-6.98,5.91-9.8,9.53s-5.62,7.37-7.9,11.37c-2.69,4.71-4.55,9.92-4.53,15.39.01,2.35,2.06,4.61,4.5,4.5s4.51-1.98,4.5-4.5h0Z"/>
          <path class="cls-1" d="m250.65,11.25c.08.03.66.24.14.04-.55-.21.16.08.29.14.32.16.64.33.95.51.37.21.72.44,1.07.68.15.1.29.21.44.32.43.3-.53-.47.1.09s1.2,1.08,1.75,1.67c.3.32.6.65.89.99.12.15.25.29.37.44.06.07.55.71.25.3-.26-.34.45.63.57.8.26.38.52.76.77,1.14.5.78.98,1.57,1.44,2.37.96,1.69,1.84,3.43,2.68,5.18.43.9.85,1.81,1.26,2.72.19.42.38.84.56,1.26.12.28.25.56.37.85.08.18.27.64.09.2.84,1.99,1.62,4.01,2.37,6.03,1.48,4.01,2.81,8.07,4.03,12.16,1.41,4.71,2.67,9.46,3.86,14.23.57,2.28,3.26,3.88,5.54,3.14s3.76-3.09,3.14-5.54c-2.21-8.83-4.66-17.62-7.81-26.17-1.62-4.41-3.42-8.76-5.44-13.01-1.71-3.61-3.57-7.19-6-10.38-3.02-3.96-6.55-7.13-11.27-8.87-2.21-.82-5.03.91-5.54,3.14-.58,2.55.78,4.66,3.14,5.54h0Z"/>
          <path class="cls-1" d="m274.31,62.83c.92,13.94,7.75,26.11,14.86,37.78,2.06,3.39,7.05,2.6,8.22-1.07.56-1.75,1.18-3.49,1.87-5.19.08-.21.49-1.15.2-.49.17-.39.34-.77.51-1.16.4-.9.83-1.78,1.27-2.66,1.62-3.23,3.48-6.34,5.57-9.28.24-.34.48-.67.73-1,.14-.19.73-.98.29-.4.54-.7,1.11-1.39,1.68-2.07,1.14-1.36,2.5-2.55,3.62-3.91.29-.35.02-.05-.09.03.22-.17.47-.29.69-.44-.05.04-.66.22-.17.08.51-.15-.22.04-.27.04-.58-.04-.97-.17-1.42-.55.1.08.41.48.05,0-.4-.52.06.09.08.21.09.45-.08-.26-.1-.31.06.16.12.32.18.49.13.39.24.78.33,1.18.21.89.36,1.81.53,2.71.88,4.76,1.64,9.54,2.3,14.34.32,2.34,3.43,3.82,5.54,3.14,2.57-.83,3.49-3.03,3.14-5.54-.68-4.88-1.46-9.74-2.35-14.58s-2.76-10.01-8.47-10.1c-4.84-.07-8.54,5-11.26,8.42s-5.13,6.95-7.21,10.76c-2.41,4.41-4.38,9.09-5.91,13.88l8.22-1.07c-3.27-5.37-6.52-10.77-9.13-16.51-.15-.33-.3-.66-.44-.99-.58-1.3.31.79-.22-.52-.27-.67-.54-1.34-.79-2.02-.56-1.49-1.06-3-1.49-4.52s-.8-3.08-1.08-4.65c-.07-.36-.13-.72-.18-1.07-.05-.3-.13-.98-.05-.32-.1-.88-.18-1.75-.24-2.63-.15-2.34-1.96-4.61-4.5-4.5-2.31.1-4.67,1.98-4.5,4.5h0Z"/>
          <path class="cls-1" d="m314.85,90.27c1.11,5.69,2.08,11.4,2.89,17.13.05.32.09.65.14.97.01.08.15,1.08.08.62-.08-.57.13,1.02.11.86.04.32.08.65.12.97.18,1.46.36,2.92.52,4.38.32,2.84.6,5.69.85,8.54.95,10.97.28,22.8,6.41,32.48,2.88,4.55,6.91,8.62,11.94,10.7,5.52,2.29,11.17.2,15.38-3.64,2.02-1.84,3.65-4.11,5.17-6.36.69-1.02,1.36-2.05,2.05-3.07.32-.48.65-.95.98-1.42.21-.29.42-.58.63-.87-.38.5.05-.06.22-.26.75-.91,1.58-1.7,2.44-2.51-.56.52-.12.08.03-.03.22-.15.43-.3.66-.44s.45-.27.68-.4c.28-.16,1.07-.49.32-.2.47-.18.96-.29,1.44-.45,1.05-.34-.56-.04.08-.03.24,0,.49-.02.73-.02.34,0,1,.23.07-.02.24.06.48.12.72.19.31.08.56.38-.04-.03.3.2.63.36.93.56-.16-.1-.63-.59-.06-.02.22.22.45.43.65.66.16.18.64.85.13.12.19.26.37.53.53.81.35.56.61,1.15.93,1.73s-.21-.63.01.02c.14.4.29.79.43,1.19.92,2.78,1.41,5.69,2.24,8.49,1.71,5.77,4.82,11.13,9.14,15.34,1.69,1.65,4.71,1.81,6.36,0s1.8-4.61,0-6.36c-.82-.8-1.56-1.67-2.32-2.53-.47-.52.36.51-.05-.05-.2-.28-.4-.55-.6-.83-.35-.51-.69-1.03-1.01-1.56-.61-1.01-1.17-2.05-1.66-3.12-.12-.25-.23-.51-.34-.77.3.71.03.04-.02-.09-.24-.66-.48-1.32-.69-1.99-1.55-5-2.07-10.44-5.18-14.82-1.71-2.41-3.83-4.29-6.64-5.3-2.51-.9-5.52-.78-8,.14-5.45,2.02-8.89,6.36-12.02,11.05-.68,1.02-1.35,2.05-2.05,3.06-.33.47-.66.94-1.01,1.4.11-.15.49-.59-.06.06-.26.31-.52.62-.79.92-.71.79-1.48,1.56-2.33,2.21.66-.5.1-.09-.04,0-.22.14-.43.28-.65.41-.27.16-.57.29-.84.45-.43.27.66-.18-.13.05-.24.07-.47.15-.71.21-.06.01-1.19.15-.49.12.83-.04-1.45-.07-.72,0,.57.05-.26-.06-.4-.09-.33-.08-.65-.19-.97-.29-.19-.06-.7-.38-.06-.02-.3-.17-.62-.32-.92-.49-.55-.32-1.08-.67-1.59-1.04.64.46-.52-.45-.65-.56-.88-.77-1.69-1.61-2.46-2.49-.14-.16-1.05-1.36-.52-.63-.31-.43-.62-.86-.91-1.3-.7-1.06-1.32-2.17-1.86-3.32-.12-.24-.22-.49-.34-.73-.3-.63.21.62-.02-.05-.2-.58-.43-1.14-.62-1.73-.42-1.29-.74-2.61-.99-3.93-.41-2.15-.6-4.37-.78-7.15s-.34-5.61-.55-8.42c-1-13.02-2.77-25.99-5.28-38.81-.45-2.31-3.34-3.85-5.54-3.14-2.46.8-3.63,3.06-3.14,5.54h0Z"/>
        </g>
        <g>
          <path class="cls-5" d="m7.93,143.56c4.27-5.18,7.52-10.94,9.76-17.28,2.34-6.65,3.12-13.7,3.9-20.67.19-1.69.38-3.37.59-5.06.1-.81.2-1.62.31-2.43.21-1.59-.12.84.1-.74.07-.48.13-.97.2-1.45.51-3.55,1.07-7.09,1.7-10.62.58-3.27,1.18-6.54,1.94-9.77.32-1.35.67-2.7,1.07-4.03.22-.73.45-1.45.7-2.16.11-.32.23-.64.35-.96.1-.25.2-.51.3-.76-.19.45-.19.43.02-.05.56-1.21,1.15-2.4,1.86-3.54.35-.56.72-1.1,1.11-1.63-.59.79.2-.23.28-.32.24-.28.5-.56.76-.82.5-.51,1.04-.99,1.59-1.44-.13.1-.74.51-.06.07.29-.19.58-.4.88-.58.5-.31,1.01-.59,1.53-.84.2-.1,1.26-.48.2-.1.33-.11.65-.24.98-.35.6-.2,1.21-.36,1.83-.49.24-.05.6-.19.84-.16-1.06-.12-.19.03.16,0,.57-.05,1.14-.06,1.7-.05.28,0,.57.02.85.04.17.01.34.03.51.04.51.06.45.05-.18-.03.44-.09,1.22.24,1.66.37.33.09.66.19.98.31.04.01,1.08.43.42.15s.37.19.4.2c.31.16.61.32.91.5.2.12.4.24.59.37.2.13.39.26.58.4-.44-.35-.46-.36-.07-.05.91.79,1.74,1.63,2.52,2.54s-.5-.76.18.23c.17.25.35.49.52.75.41.61.79,1.24,1.14,1.88.33.6.64,1.21.94,1.82.11.23.21.46.32.68.54,1.13-.32-.85.14.32.52,1.32.99,2.65,1.42,4.01,1.91,6.14,3.1,12.52,4.5,18.79.87,3.88,1.74,7.76,2.61,11.64s1.49,7.85,2.9,11.53,3.62,6.82,5.77,10.08,4.47,6.78,6.71,10.17c1.3,1.96,4.04,2.98,6.16,1.61,1.96-1.26,3-4.06,1.61-6.16-2.06-3.12-4.12-6.24-6.18-9.35-1.85-2.8-3.87-5.54-5.32-8.57-.59-1.23.19.73-.23-.6-.14-.44-.3-.86-.43-1.3-.22-.73-.42-1.47-.6-2.22-.46-1.87-.86-3.76-1.28-5.64-.8-3.56-1.6-7.12-2.39-10.67-1.48-6.61-2.77-13.3-4.6-19.82-1.66-5.9-4.02-11.78-8.23-16.35s-10.13-7.01-16.2-6.64-12.02,3.19-15.92,7.99c-4.22,5.19-6.36,11.58-7.79,18.04-1.54,6.96-2.67,14.04-3.63,21.1-.58,4.25-1.06,8.51-1.55,12.77-.11.96-.23,1.91-.35,2.87.11-.83-.1.73-.1.71-.09.63-.19,1.27-.29,1.9-.31,1.89-.68,3.76-1.15,5.62s-1.02,3.6-1.67,5.36c-.12.33-.25.66-.38.99-.08.2-.16.4-.24.59.18-.42.17-.39-.04.1-.34.77-.7,1.54-1.08,2.3-.81,1.63-1.71,3.22-2.69,4.75-.45.7-.92,1.39-1.4,2.07-.24.34-.49.67-.74,1,.54-.71-.48.58-.58.71-1.49,1.81-1.91,4.61,0,6.36,1.65,1.52,4.77,1.94,6.36,0h0Z"/>
          <path class="cls-5" d="m78.66,133.92c3.43,6.45,7.96,12.41,13.38,17.32,2.72,2.47,5.68,4.73,8.81,6.67s6.45,3.79,9.99,4.55c4.33.92,9.06.18,12.03-3.39,2.64-3.16,4.08-7.28,5.6-11.06,2.8-6.93,5.06-14.06,7.62-21.08.72-1.97,1.46-3.94,2.25-5.89.18-.45.37-.9.55-1.35.2-.48-.02.04-.05.11.14-.32.27-.64.41-.96.41-.95.84-1.9,1.28-2.83,1.76-3.72,3.76-7.31,6.12-10.68,1.35-1.94.42-5.08-1.61-6.16-2.3-1.22-4.71-.45-6.16,1.61-8.16,11.69-12.01,25.68-16.84,38.92-.58,1.59-1.17,3.17-1.79,4.74-.31.78-.63,1.56-.94,2.34-.52,1.28.35-.8-.2.47-.22.51-.44,1.02-.67,1.53-.66,1.48-1.31,3.04-2.28,4.35.58-.78-.24.19-.32.28l-.29.26c.4-.31.39-.33-.03-.05l-.33.17c.52-.21.54-.22.06-.06-.23.07-.47.12-.71.17.6-.07.63-.08.11-.04-.37-.02-.74-.01-1.11-.03-1.17-.04.83.27-.31-.06-.75-.22-1.5-.43-2.25-.66-1.21-.39.77.39-.37-.14-.35-.16-.7-.33-1.04-.5-.8-.4-1.59-.82-2.36-1.26-1.34-.76-2.65-1.58-3.92-2.45-.64-.44-1.26-.9-1.89-1.36-1.03-.77.68.57-.32-.25-.4-.33-.81-.66-1.21-.99-2.82-2.38-5.4-5.04-7.72-7.92-.06-.08-.88-1.12-.28-.35-.33-.43-.64-.86-.96-1.29-.55-.76-1.08-1.54-1.6-2.33-1.04-1.59-1.99-3.23-2.89-4.9-1.11-2.08-4.17-2.89-6.16-1.61-2.12,1.36-2.8,3.93-1.61,6.16h0Z"/>
          <path class="cls-5" d="m145.34,106.92c.5-.46,1-.93,1.53-1.36-.63.51.05-.02.23-.13.28-.18.57-.33.85-.49-.67.38-.25.12-.01.04,1.03-.34-.8-.1.29,0-.13-.01-1.03-.1-.2.02-.54-.26-.59-.28-.14-.05l.3.18c-.84-.45-.05-.04.19.2.17.17.33.36.49.55-.58-.71-.08-.04.04.17.16.27.3.55.44.83-.35-.7-.03-.07.02.1.13.43.27.85.38,1.28.19.73.33,1.46.45,2.2,1,5.91,2.03,11.64,4.16,17.28s4.81,11.08,8.4,15.9c1.94,2.62,4.05,4.93,6.74,6.81s5.94,2.85,9.22,3.07c6.59.45,13.14-2.84,16.85-8.23,1.76-2.55,2.84-5.58,3.95-8.45s2.17-5.83,3.13-8.78c3.89-11.93,6.52-24.25,8.49-36.64.58-3.67,1.1-7.35,1.59-11.03.23-1.75.46-3.51.68-5.27.11-.84.22-1.68.33-2.52-.1.76.03-.22.06-.4.07-.53.15-1.07.23-1.6.98-6.77,2.3-13.53,4.79-19.93.85-2.2-.94-5.03-3.14-5.54-2.58-.59-4.62.79-5.54,3.14-2.21,5.68-3.5,11.64-4.44,17.65-.52,3.28-.94,6.58-1.37,9.88-.18,1.37-.35,2.74-.53,4.11-.2,1.51.06-.44-.06.44-.05.39-.11.78-.16,1.17-.12.86-.24,1.72-.36,2.58-1.78,12.28-4.13,24.5-7.64,36.41-.86,2.91-1.78,5.81-2.79,8.67-.51,1.47-1.05,2.92-1.6,4.38-.28.72-.56,1.45-.85,2.17-.11.28-.22.55-.33.83-.52,1.29.37-.78-.21.49s-1.24,2.49-1.99,3.69c-.09.14-.53.64-.04.07-.18.21-.36.42-.55.62-.28.3-.59.57-.89.85-.67.62.46-.23-.39.28-.58.35-1.15.68-1.75,1-.13.07-.77.33-.05.04-.33.13-.66.25-1,.36-.61.2-1.22.33-1.85.47-1.26.28.49.03-.27.04-.49,0-.98.07-1.47.06-.28,0-.56-.02-.84-.03-1.28-.03.48.15-.26-.02-.62-.14-1.23-.26-1.84-.45.06.02-1.2-.48-.65-.23s-.62-.34-.59-.32c-.23-.13-.46-.26-.68-.4-.13-.08-1.21-.84-.84-.56.51.39-.5-.44-.47-.41-.2-.18-.4-.36-.59-.55-.49-.47-.96-.96-1.41-1.48-.18-.21-.36-.42-.53-.63-.05-.06-.87-1.14-.32-.4-.41-.56-.82-1.13-1.2-1.7-1.61-2.39-3.04-4.9-4.3-7.49-.32-.65-.63-1.32-.93-1.98-.12-.27-.24-.53-.35-.8.3.7-.07-.17-.14-.34-.58-1.43-1.11-2.88-1.59-4.34-1.01-3.09-1.81-6.26-2.38-9.47-.62-3.51-.87-7-2.36-10.28-1.38-3.06-4.12-5.85-7.51-6.5-4.32-.84-7.79,1.6-10.79,4.39-1.73,1.61-1.75,4.76,0,6.36,1.85,1.7,4.52,1.71,6.36,0h0Z"/>
          <path class="cls-5" d="m219.32,49.01c0-.5,0-.99.04-1.49.01-.2.12-1.27.07-.87-.08.55.06-.31.08-.44.04-.21.08-.41.12-.61.12-.54.26-1.08.41-1.62.12-.4.25-.8.38-1.19.07-.2.14-.39.21-.59.04-.11.35-.92.16-.44-.17.44.09-.2.1-.23.09-.19.17-.38.26-.57.24-.51.49-1.01.75-1.51,1.8-3.42,4.06-6.59,6.35-9.69.26-.35.51-.69.77-1.03.53-.71.2-.26.08-.11.13-.17.26-.34.4-.51.62-.78,1.25-1.55,1.91-2.3,1.29-1.47,2.65-2.88,4.14-4.15.15-.13.94-.77.67-.55-.41.31.27-.19.37-.26.17-.12.33-.24.5-.35.77-.52,1.56-1,2.39-1.41.16-.08.34-.15.5-.24.58-.32-.68.24-.06.02.35-.12.69-.26,1.04-.37.88-.29,1.77-.46,2.67-.65-.9.19.04,0,.43-.02.48-.03.96-.03,1.44-.02.18,0,.36.01.54.03.15.01,1.13.18.47.04-.56-.12.6.14.8.19.46.12.9.3,1.36.43-.05-.01-.71-.34-.25-.11.27.14.54.26.8.4.37.21.71.46,1.07.67.55.32-.5-.48-.04-.03.22.22.47.42.69.63,1.7,1.63,4.7,1.82,6.36,0s1.81-4.62,0-6.36c-6.8-6.53-17.26-6.03-24.76-.97-3.83,2.58-6.98,5.91-9.8,9.53s-5.62,7.37-7.9,11.37c-2.69,4.71-4.55,9.92-4.53,15.39.01,2.35,2.06,4.61,4.5,4.5s4.51-1.98,4.5-4.5h0Z"/>
          <path class="cls-5" d="m250.65,20.11c.08.03.66.24.14.04-.55-.21.16.08.29.14.32.16.64.33.95.51.37.21.72.44,1.07.68.15.1.29.21.44.32.43.3-.53-.47.1.09s1.2,1.08,1.75,1.67c.3.32.6.65.89.99.12.15.25.29.37.44.06.07.55.71.25.3-.26-.34.45.63.57.8.26.38.52.76.77,1.14.5.78.98,1.57,1.44,2.37.96,1.69,1.84,3.43,2.68,5.18.43.9.85,1.81,1.26,2.72.19.42.38.84.56,1.26.12.28.25.56.37.85.08.18.27.64.09.2.84,1.99,1.62,4.01,2.37,6.03,1.48,4.01,2.81,8.07,4.03,12.16,1.41,4.71,2.67,9.46,3.86,14.23.57,2.28,3.26,3.88,5.54,3.14s3.76-3.09,3.14-5.54c-2.21-8.83-4.66-17.62-7.81-26.17-1.62-4.41-3.42-8.76-5.44-13.01-1.71-3.61-3.57-7.19-6-10.38-3.02-3.96-6.55-7.13-11.27-8.87-2.21-.82-5.03.91-5.54,3.14-.58,2.55.78,4.66,3.14,5.54h0Z"/>
          <path class="cls-5" d="m274.31,71.69c.92,13.94,7.75,26.11,14.86,37.78,2.06,3.39,7.05,2.6,8.22-1.07.56-1.75,1.18-3.49,1.87-5.19.08-.21.49-1.15.2-.49.17-.39.34-.77.51-1.16.4-.9.83-1.78,1.27-2.66,1.62-3.23,3.48-6.34,5.57-9.28.24-.34.48-.67.73-1,.14-.19.73-.98.29-.4.54-.7,1.11-1.39,1.68-2.07,1.14-1.36,2.5-2.55,3.62-3.91.29-.35.02-.05-.09.03.22-.17.47-.29.69-.44-.05.04-.66.22-.17.08.51-.15-.22.04-.27.04-.58-.04-.97-.17-1.42-.55.1.08.41.48.05,0-.4-.52.06.09.08.21.09.45-.08-.26-.1-.31.06.16.12.32.18.49.13.39.24.78.33,1.18.21.89.36,1.81.53,2.71.88,4.76,1.64,9.54,2.3,14.34.32,2.34,3.43,3.82,5.54,3.14,2.57-.83,3.49-3.03,3.14-5.54-.68-4.88-1.46-9.74-2.35-14.58s-2.76-10.01-8.47-10.1c-4.84-.07-8.54,5-11.26,8.42s-5.13,6.95-7.21,10.76c-2.41,4.41-4.38,9.09-5.91,13.88l8.22-1.07c-3.27-5.37-6.52-10.77-9.13-16.51-.15-.33-.3-.66-.44-.99-.58-1.3.31.79-.22-.52-.27-.67-.54-1.34-.79-2.02-.56-1.49-1.06-3-1.49-4.52s-.8-3.08-1.08-4.65c-.07-.36-.13-.72-.18-1.07-.05-.3-.13-.98-.05-.32-.1-.88-.18-1.75-.24-2.63-.15-2.34-1.96-4.61-4.5-4.5-2.31.1-4.67,1.98-4.5,4.5h0Z"/>
          <path class="cls-5" d="m314.85,99.13c1.11,5.69,2.08,11.4,2.89,17.13.05.32.09.65.14.97.01.08.15,1.08.08.62-.08-.57.13,1.02.11.86.04.32.08.65.12.97.18,1.46.36,2.92.52,4.38.32,2.84.6,5.69.85,8.54.95,10.97.28,22.8,6.41,32.48,2.88,4.55,6.91,8.62,11.94,10.7,5.52,2.29,11.17.2,15.38-3.64,2.02-1.84,3.65-4.11,5.17-6.36.69-1.02,1.36-2.05,2.05-3.07.32-.48.65-.95.98-1.42.21-.29.42-.58.63-.87-.38.5.05-.06.22-.26.75-.91,1.58-1.7,2.44-2.51-.56.52-.12.08.03-.03.22-.15.43-.3.66-.44s.45-.27.68-.4c.28-.16,1.07-.49.32-.2.47-.18.96-.29,1.44-.45,1.05-.34-.56-.04.08-.03.24,0,.49-.02.73-.02.34,0,1,.23.07-.02.24.06.48.12.72.19.31.08.56.38-.04-.03.3.2.63.36.93.56-.16-.1-.63-.59-.06-.02.22.22.45.43.65.66.16.18.64.85.13.12.19.26.37.53.53.81.35.56.61,1.15.93,1.73s-.21-.63.01.02c.14.4.29.79.43,1.19.92,2.78,1.41,5.69,2.24,8.49,1.71,5.77,4.82,11.13,9.14,15.34,1.69,1.65,4.71,1.81,6.36,0s1.8-4.61,0-6.36c-.82-.8-1.56-1.67-2.32-2.53-.47-.52.36.51-.05-.05-.2-.28-.4-.55-.6-.83-.35-.51-.69-1.03-1.01-1.56-.61-1.01-1.17-2.05-1.66-3.12-.12-.25-.23-.51-.34-.77.3.71.03.04-.02-.09-.24-.66-.48-1.32-.69-1.99-1.55-5-2.07-10.44-5.18-14.82-1.71-2.41-3.83-4.29-6.64-5.3-2.51-.9-5.52-.78-8,.14-5.45,2.02-8.89,6.36-12.02,11.05-.68,1.02-1.35,2.05-2.05,3.06-.33.47-.66.94-1.01,1.4.11-.15.49-.59-.06.06-.26.31-.52.62-.79.92-.71.79-1.48,1.56-2.33,2.21.66-.5.1-.09-.04,0-.22.14-.43.28-.65.41-.27.16-.57.29-.84.45-.43.27.66-.18-.13.05-.24.07-.47.15-.71.21-.06.01-1.19.15-.49.12.83-.04-1.45-.07-.72,0,.57.05-.26-.06-.4-.09-.33-.08-.65-.19-.97-.29-.19-.06-.7-.38-.06-.02-.3-.17-.62-.32-.92-.49-.55-.32-1.08-.67-1.59-1.04.64.46-.52-.45-.65-.56-.88-.77-1.69-1.61-2.46-2.49-.14-.16-1.05-1.36-.52-.63-.31-.43-.62-.86-.91-1.3-.7-1.06-1.32-2.17-1.86-3.32-.12-.24-.22-.49-.34-.73-.3-.63.21.62-.02-.05-.2-.58-.43-1.14-.62-1.73-.42-1.29-.74-2.61-.99-3.93-.41-2.15-.6-4.37-.78-7.15s-.34-5.61-.55-8.42c-1-13.02-2.77-25.99-5.28-38.81-.45-2.31-3.34-3.85-5.54-3.14-2.46.8-3.63,3.06-3.14,5.54h0Z"/>
        </g>
        <g>
          <path class="cls-2" d="m9.08,152.91c4.27-5.18,7.52-10.94,9.76-17.28,2.34-6.65,3.12-13.7,3.9-20.67.19-1.69.38-3.37.59-5.06.1-.81.2-1.62.31-2.43.21-1.59-.12.84.1-.74.07-.48.13-.97.2-1.45.51-3.55,1.07-7.09,1.7-10.62.58-3.27,1.18-6.54,1.94-9.77.32-1.35.67-2.7,1.07-4.03.22-.73.45-1.45.7-2.16.11-.32.23-.64.35-.96.1-.25.2-.51.3-.76-.19.45-.19.43.02-.05.56-1.21,1.15-2.4,1.86-3.54.35-.56.72-1.1,1.11-1.63-.59.79.2-.23.28-.32.24-.28.5-.56.76-.82.5-.51,1.04-.99,1.59-1.44-.13.1-.74.51-.06.07.29-.19.58-.4.88-.58.5-.31,1.01-.59,1.53-.84.2-.1,1.26-.48.2-.1.33-.11.65-.24.98-.35.6-.2,1.21-.36,1.83-.49.24-.05.6-.19.84-.16-1.06-.12-.19.03.16,0,.57-.05,1.14-.06,1.7-.05.28,0,.57.02.85.04.17.01.34.03.51.04.51.06.45.05-.18-.03.44-.09,1.22.24,1.66.37.33.09.66.19.98.31.04.01,1.08.43.42.15s.37.19.4.2c.31.16.61.32.91.5.2.12.4.24.59.37.2.13.39.26.58.4-.44-.35-.46-.36-.07-.05.91.79,1.74,1.63,2.52,2.54s-.5-.76.18.23c.17.25.35.49.52.75.41.61.79,1.24,1.14,1.88.33.6.64,1.21.94,1.82.11.23.21.46.32.68.54,1.13-.32-.85.14.32.52,1.32.99,2.65,1.42,4.01,1.91,6.14,3.1,12.52,4.5,18.79.87,3.88,1.74,7.76,2.61,11.64s1.49,7.85,2.9,11.53,3.62,6.82,5.77,10.08,4.47,6.78,6.71,10.17c1.3,1.96,4.04,2.98,6.16,1.61,1.96-1.26,3-4.06,1.61-6.16-2.06-3.12-4.12-6.24-6.18-9.35-1.85-2.8-3.87-5.54-5.32-8.57-.59-1.23.19.73-.23-.6-.14-.44-.3-.86-.43-1.3-.22-.73-.42-1.47-.6-2.22-.46-1.87-.86-3.76-1.28-5.64-.8-3.56-1.6-7.12-2.39-10.67-1.48-6.61-2.77-13.3-4.6-19.82-1.66-5.9-4.02-11.78-8.23-16.35s-10.13-7.01-16.2-6.64-12.02,3.19-15.92,7.99c-4.22,5.19-6.36,11.58-7.79,18.04-1.54,6.96-2.67,14.04-3.63,21.1-.58,4.25-1.06,8.51-1.55,12.77-.11.96-.23,1.91-.35,2.87.11-.83-.1.73-.1.71-.09.63-.19,1.27-.29,1.9-.31,1.89-.68,3.76-1.15,5.62s-1.02,3.6-1.67,5.36c-.12.33-.25.66-.38.99-.08.2-.16.4-.24.59.18-.42.17-.39-.04.1-.34.77-.7,1.54-1.08,2.3-.81,1.63-1.71,3.22-2.69,4.75-.45.7-.92,1.39-1.4,2.07-.24.34-.49.67-.74,1,.54-.71-.48.58-.58.71-1.49,1.81-1.91,4.61,0,6.36,1.65,1.52,4.77,1.94,6.36,0h0Z"/>
          <path class="cls-2" d="m79.81,143.27c3.43,6.45,7.96,12.41,13.38,17.32,2.72,2.47,5.68,4.73,8.81,6.67s6.45,3.79,9.99,4.55c4.33.92,9.06.18,12.03-3.39,2.64-3.16,4.08-7.28,5.6-11.06,2.8-6.93,5.06-14.06,7.62-21.08.72-1.97,1.46-3.94,2.25-5.89.18-.45.37-.9.55-1.35.2-.48-.02.04-.05.11.14-.32.27-.64.41-.96.41-.95.84-1.9,1.28-2.83,1.76-3.72,3.76-7.31,6.12-10.68,1.35-1.94.42-5.08-1.61-6.16-2.3-1.22-4.71-.45-6.16,1.61-8.16,11.69-12.01,25.68-16.84,38.92-.58,1.59-1.17,3.17-1.79,4.74-.31.78-.63,1.56-.94,2.34-.52,1.28.35-.8-.2.47-.22.51-.44,1.02-.67,1.53-.66,1.48-1.31,3.04-2.28,4.35.58-.78-.24.19-.32.28l-.29.26c.4-.31.39-.33-.03-.05l-.33.17c.52-.21.54-.22.06-.06-.23.07-.47.12-.71.17.6-.07.63-.08.11-.04-.37-.02-.74-.01-1.11-.03-1.17-.04.83.27-.31-.06-.75-.22-1.5-.43-2.25-.66-1.21-.39.77.39-.37-.14-.35-.16-.7-.33-1.04-.5-.8-.4-1.59-.82-2.36-1.26-1.34-.76-2.65-1.58-3.92-2.45-.64-.44-1.26-.9-1.89-1.36-1.03-.77.68.57-.32-.25-.4-.33-.81-.66-1.21-.99-2.82-2.38-5.4-5.04-7.72-7.92-.06-.08-.88-1.12-.28-.35-.33-.43-.64-.86-.96-1.29-.55-.76-1.08-1.54-1.6-2.33-1.04-1.59-1.99-3.23-2.89-4.9-1.11-2.08-4.17-2.89-6.16-1.61-2.12,1.36-2.8,3.93-1.61,6.16h0Z"/>
          <path class="cls-2" d="m146.5,116.27c.5-.46,1-.93,1.53-1.36-.63.51.05-.02.23-.13.28-.18.57-.33.85-.49-.67.38-.25.12-.01.04,1.03-.34-.8-.1.29,0-.13-.01-1.03-.1-.2.02-.54-.26-.59-.28-.14-.05l.3.18c-.84-.45-.05-.04.19.2.17.17.33.36.49.55-.58-.71-.08-.04.04.17.16.27.3.55.44.83-.35-.7-.03-.07.02.1.13.43.27.85.38,1.28.19.73.33,1.46.45,2.2,1,5.91,2.03,11.64,4.16,17.28s4.81,11.08,8.4,15.9c1.94,2.62,4.05,4.93,6.74,6.81s5.94,2.85,9.22,3.07c6.59.45,13.14-2.84,16.85-8.23,1.76-2.55,2.84-5.58,3.95-8.45s2.17-5.83,3.13-8.78c3.89-11.93,6.52-24.25,8.49-36.64.58-3.67,1.1-7.35,1.59-11.03.23-1.75.46-3.51.68-5.27.11-.84.22-1.68.33-2.52-.1.76.03-.22.06-.4.07-.53.15-1.07.23-1.6.98-6.77,2.3-13.53,4.79-19.93.85-2.2-.94-5.03-3.14-5.54-2.58-.59-4.62.79-5.54,3.14-2.21,5.68-3.5,11.64-4.44,17.65-.52,3.28-.94,6.58-1.37,9.88-.18,1.37-.35,2.74-.53,4.11-.2,1.51.06-.44-.06.44-.05.39-.11.78-.16,1.17-.12.86-.24,1.72-.36,2.58-1.78,12.28-4.13,24.5-7.64,36.41-.86,2.91-1.78,5.81-2.79,8.67-.51,1.47-1.05,2.92-1.6,4.38-.28.72-.56,1.45-.85,2.17-.11.28-.22.55-.33.83-.52,1.29.37-.78-.21.49s-1.24,2.49-1.99,3.69c-.09.14-.53.64-.04.07-.18.21-.36.42-.55.62-.28.3-.59.57-.89.85-.67.62.46-.23-.39.28-.58.35-1.15.68-1.75,1-.13.07-.77.33-.05.04-.33.13-.66.25-1,.36-.61.2-1.22.33-1.85.47-1.26.28.49.03-.27.04-.49,0-.98.07-1.47.06-.28,0-.56-.02-.84-.03-1.28-.03.48.15-.26-.02-.62-.14-1.23-.26-1.84-.45.06.02-1.2-.48-.65-.23s-.62-.34-.59-.32c-.23-.13-.46-.26-.68-.4-.13-.08-1.21-.84-.84-.56.51.39-.5-.44-.47-.41-.2-.18-.4-.36-.59-.55-.49-.47-.96-.96-1.41-1.48-.18-.21-.36-.42-.53-.63-.05-.06-.87-1.14-.32-.4-.41-.56-.82-1.13-1.2-1.7-1.61-2.39-3.04-4.9-4.3-7.49-.32-.65-.63-1.32-.93-1.98-.12-.27-.24-.53-.35-.8.3.7-.07-.17-.14-.34-.58-1.43-1.11-2.88-1.59-4.34-1.01-3.09-1.81-6.26-2.38-9.47-.62-3.51-.87-7-2.36-10.28-1.38-3.06-4.12-5.85-7.51-6.5-4.32-.84-7.79,1.6-10.79,4.39-1.73,1.61-1.75,4.76,0,6.36,1.85,1.7,4.52,1.71,6.36,0h0Z"/>
          <path class="cls-2" d="m220.47,58.36c0-.5,0-.99.04-1.49.01-.2.12-1.27.07-.87-.08.55.06-.31.08-.44.04-.21.08-.41.12-.61.12-.54.26-1.08.41-1.62.12-.4.25-.8.38-1.19.07-.2.14-.39.21-.59.04-.11.35-.92.16-.44-.17.44.09-.2.1-.23.09-.19.17-.38.26-.57.24-.51.49-1.01.75-1.51,1.8-3.42,4.06-6.59,6.35-9.69.26-.35.51-.69.77-1.03.53-.71.2-.26.08-.11.13-.17.26-.34.4-.51.62-.78,1.25-1.55,1.91-2.3,1.29-1.47,2.65-2.88,4.14-4.15.15-.13.94-.77.67-.55-.41.31.27-.19.37-.26.17-.12.33-.24.5-.35.77-.52,1.56-1,2.39-1.41.16-.08.34-.15.5-.24.58-.32-.68.24-.06.02.35-.12.69-.26,1.04-.37.88-.29,1.77-.46,2.67-.65-.9.19.04,0,.43-.02.48-.03.96-.03,1.44-.02.18,0,.36.01.54.03.15.01,1.13.18.47.04-.56-.12.6.14.8.19.46.12.9.3,1.36.43-.05-.01-.71-.34-.25-.11.27.14.54.26.8.4.37.21.71.46,1.07.67.55.32-.5-.48-.04-.03.22.22.47.42.69.63,1.7,1.63,4.7,1.82,6.36,0s1.81-4.62,0-6.36c-6.8-6.53-17.26-6.03-24.76-.97-3.83,2.58-6.98,5.91-9.8,9.53s-5.62,7.37-7.9,11.37c-2.69,4.71-4.55,9.92-4.53,15.39.01,2.35,2.06,4.61,4.5,4.5s4.51-1.98,4.5-4.5h0Z"/>
          <path class="cls-2" d="m251.81,29.46c.08.03.66.24.14.04-.55-.21.16.08.29.14.32.16.64.33.95.51.37.21.72.44,1.07.68.15.1.29.21.44.32.43.3-.53-.47.1.09s1.2,1.08,1.75,1.67c.3.32.6.65.89.99.12.15.25.29.37.44.06.07.55.71.25.3-.26-.34.45.63.57.8.26.38.52.76.77,1.14.5.78.98,1.57,1.44,2.37.96,1.69,1.84,3.43,2.68,5.18.43.9.85,1.81,1.26,2.72.19.42.38.84.56,1.26.12.28.25.56.37.85.08.18.27.64.09.2.84,1.99,1.62,4.01,2.37,6.03,1.48,4.01,2.81,8.07,4.03,12.16,1.41,4.71,2.67,9.46,3.86,14.23.57,2.28,3.26,3.88,5.54,3.14s3.76-3.09,3.14-5.54c-2.21-8.83-4.66-17.62-7.81-26.17-1.62-4.41-3.42-8.76-5.44-13.01-1.71-3.61-3.57-7.19-6-10.38-3.02-3.96-6.55-7.13-11.27-8.87-2.21-.82-5.03.91-5.54,3.14-.58,2.55.78,4.66,3.14,5.54h0Z"/>
          <path class="cls-2" d="m275.46,81.04c.92,13.94,7.75,26.11,14.86,37.78,2.06,3.39,7.05,2.6,8.22-1.07.56-1.75,1.18-3.49,1.87-5.19.08-.21.49-1.15.2-.49.17-.39.34-.77.51-1.16.4-.9.83-1.78,1.27-2.66,1.62-3.23,3.48-6.34,5.57-9.28.24-.34.48-.67.73-1,.14-.19.73-.98.29-.4.54-.7,1.11-1.39,1.68-2.07,1.14-1.36,2.5-2.55,3.62-3.91.29-.35.02-.05-.09.03.22-.17.47-.29.69-.44-.05.04-.66.22-.17.08.51-.15-.22.04-.27.04-.58-.04-.97-.17-1.42-.55.1.08.41.48.05,0-.4-.52.06.09.08.21.09.45-.08-.26-.1-.31.06.16.12.32.18.49.13.39.24.78.33,1.18.21.89.36,1.81.53,2.71.88,4.76,1.64,9.54,2.3,14.34.32,2.34,3.43,3.82,5.54,3.14,2.57-.83,3.49-3.03,3.14-5.54-.68-4.88-1.46-9.74-2.35-14.58s-2.76-10.01-8.47-10.1c-4.84-.07-8.54,5-11.26,8.42s-5.13,6.95-7.21,10.76c-2.41,4.41-4.38,9.09-5.91,13.88l8.22-1.07c-3.27-5.37-6.52-10.77-9.13-16.51-.15-.33-.3-.66-.44-.99-.58-1.3.31.79-.22-.52-.27-.67-.54-1.34-.79-2.02-.56-1.49-1.06-3-1.49-4.52s-.8-3.08-1.08-4.65c-.07-.36-.13-.72-.18-1.07-.05-.3-.13-.98-.05-.32-.1-.88-.18-1.75-.24-2.63-.15-2.34-1.96-4.61-4.5-4.5-2.31.1-4.67,1.98-4.5,4.5h0Z"/>
          <path class="cls-2" d="m316.01,108.48c1.11,5.69,2.08,11.4,2.89,17.13.05.32.09.65.14.97.01.08.15,1.08.08.62-.08-.57.13,1.02.11.86.04.32.08.65.12.97.18,1.46.36,2.92.52,4.38.32,2.84.6,5.69.85,8.54.95,10.97.28,22.8,6.41,32.48,2.88,4.55,6.91,8.62,11.94,10.7,5.52,2.29,11.17.2,15.38-3.64,2.02-1.84,3.65-4.11,5.17-6.36.69-1.02,1.36-2.05,2.05-3.07.32-.48.65-.95.98-1.42.21-.29.42-.58.63-.87-.38.5.05-.06.22-.26.75-.91,1.58-1.7,2.44-2.51-.56.52-.12.08.03-.03.22-.15.43-.3.66-.44s.45-.27.68-.4c.28-.16,1.07-.49.32-.2.47-.18.96-.29,1.44-.45,1.05-.34-.56-.04.08-.03.24,0,.49-.02.73-.02.34,0,1,.23.07-.02.24.06.48.12.72.19.31.08.56.38-.04-.03.3.2.63.36.93.56-.16-.1-.63-.59-.06-.02.22.22.45.43.65.66.16.18.64.85.13.12.19.26.37.53.53.81.35.56.61,1.15.93,1.73s-.21-.63.01.02c.14.4.29.79.43,1.19.92,2.78,1.41,5.69,2.24,8.49,1.71,5.77,4.82,11.13,9.14,15.34,1.69,1.65,4.71,1.81,6.36,0s1.8-4.61,0-6.36c-.82-.8-1.56-1.67-2.32-2.53-.47-.52.36.51-.05-.05-.2-.28-.4-.55-.6-.83-.35-.51-.69-1.03-1.01-1.56-.61-1.01-1.17-2.05-1.66-3.12-.12-.25-.23-.51-.34-.77.3.71.03.04-.02-.09-.24-.66-.48-1.32-.69-1.99-1.55-5-2.07-10.44-5.18-14.82-1.71-2.41-3.83-4.29-6.64-5.3-2.51-.9-5.52-.78-8,.14-5.45,2.02-8.89,6.36-12.02,11.05-.68,1.02-1.35,2.05-2.05,3.06-.33.47-.66.94-1.01,1.4.11-.15.49-.59-.06.06-.26.31-.52.62-.79.92-.71.79-1.48,1.56-2.33,2.21.66-.5.1-.09-.04,0-.22.14-.43.28-.65.41-.27.16-.57.29-.84.45-.43.27.66-.18-.13.05-.24.07-.47.15-.71.21-.06.01-1.19.15-.49.12.83-.04-1.45-.07-.72,0,.57.05-.26-.06-.4-.09-.33-.08-.65-.19-.97-.29-.19-.06-.7-.38-.06-.02-.3-.17-.62-.32-.92-.49-.55-.32-1.08-.67-1.59-1.04.64.46-.52-.45-.65-.56-.88-.77-1.69-1.61-2.46-2.49-.14-.16-1.05-1.36-.52-.63-.31-.43-.62-.86-.91-1.3-.7-1.06-1.32-2.17-1.86-3.32-.12-.24-.22-.49-.34-.73-.3-.63.21.62-.02-.05-.2-.58-.43-1.14-.62-1.73-.42-1.29-.74-2.61-.99-3.93-.41-2.15-.6-4.37-.78-7.15s-.34-5.61-.55-8.42c-1-13.02-2.77-25.99-5.28-38.81-.45-2.31-3.34-3.85-5.54-3.14-2.46.8-3.63,3.06-3.14,5.54h0Z"/>
        </g>
        <g>
          <path class="cls-4" d="m7.64,162.45c4.27-5.18,7.52-10.94,9.76-17.28,2.34-6.65,3.12-13.7,3.9-20.67.19-1.69.38-3.37.59-5.06.1-.81.2-1.62.31-2.43.21-1.59-.12.84.1-.74.07-.48.13-.97.2-1.45.51-3.55,1.07-7.09,1.7-10.62.58-3.27,1.18-6.54,1.94-9.77.32-1.35.67-2.7,1.07-4.03.22-.73.45-1.45.7-2.16.11-.32.23-.64.35-.96.1-.25.2-.51.3-.76-.19.45-.19.43.02-.05.56-1.21,1.15-2.4,1.86-3.54.35-.56.72-1.1,1.11-1.63-.59.79.2-.23.28-.32.24-.28.5-.56.76-.82.5-.51,1.04-.99,1.59-1.44-.13.1-.74.51-.06.07.29-.19.58-.4.88-.58.5-.31,1.01-.59,1.53-.84.2-.1,1.26-.48.2-.1.33-.11.65-.24.98-.35.6-.2,1.21-.36,1.83-.49.24-.05.6-.19.84-.16-1.06-.12-.19.03.16,0,.57-.05,1.14-.06,1.7-.05.28,0,.57.02.85.04.17.01.34.03.51.04.51.06.45.05-.18-.03.44-.09,1.22.24,1.66.37.33.09.66.19.98.31.04.01,1.08.43.42.15s.37.19.4.2c.31.16.61.32.91.5.2.12.4.24.59.37.2.13.39.26.58.4-.44-.35-.46-.36-.07-.05.91.79,1.74,1.63,2.52,2.54s-.5-.76.18.23c.17.25.35.49.52.75.41.61.79,1.24,1.14,1.88.33.6.64,1.21.94,1.82.11.23.21.46.32.68.54,1.13-.32-.85.14.32.52,1.32.99,2.65,1.42,4.01,1.91,6.14,3.1,12.52,4.5,18.79.87,3.88,1.74,7.76,2.61,11.64s1.49,7.85,2.9,11.53,3.62,6.82,5.77,10.08,4.47,6.78,6.71,10.17c1.3,1.96,4.04,2.98,6.16,1.61,1.96-1.26,3-4.06,1.61-6.16-2.06-3.12-4.12-6.24-6.18-9.35-1.85-2.8-3.87-5.54-5.32-8.57-.59-1.23.19.73-.23-.6-.14-.44-.3-.86-.43-1.3-.22-.73-.42-1.47-.6-2.22-.46-1.87-.86-3.76-1.28-5.64-.8-3.56-1.6-7.12-2.39-10.67-1.48-6.61-2.77-13.3-4.6-19.82-1.66-5.9-4.02-11.78-8.23-16.35s-10.13-7.01-16.2-6.64-12.02,3.19-15.92,7.99c-4.22,5.19-6.36,11.58-7.79,18.04-1.54,6.96-2.67,14.04-3.63,21.1-.58,4.25-1.06,8.51-1.55,12.77-.11.96-.23,1.91-.35,2.87.11-.83-.1.73-.1.71-.09.63-.19,1.27-.29,1.9-.31,1.89-.68,3.76-1.15,5.62s-1.02,3.6-1.67,5.36c-.12.33-.25.66-.38.99-.08.2-.16.4-.24.59.18-.42.17-.39-.04.1-.34.77-.7,1.54-1.08,2.3-.81,1.63-1.71,3.22-2.69,4.75-.45.7-.92,1.39-1.4,2.07-.24.34-.49.67-.74,1,.54-.71-.48.58-.58.71-1.49,1.81-1.91,4.61,0,6.36,1.65,1.52,4.77,1.94,6.36,0h0Z"/>
          <path class="cls-4" d="m78.38,152.82c3.43,6.45,7.96,12.41,13.38,17.32,2.72,2.47,5.68,4.73,8.81,6.67s6.45,3.79,9.99,4.55c4.33.92,9.06.18,12.03-3.39,2.64-3.16,4.08-7.28,5.6-11.06,2.8-6.93,5.06-14.06,7.62-21.08.72-1.97,1.46-3.94,2.25-5.89.18-.45.37-.9.55-1.35.2-.48-.02.04-.05.11.14-.32.27-.64.41-.96.41-.95.84-1.9,1.28-2.83,1.76-3.72,3.76-7.31,6.12-10.68,1.35-1.94.42-5.08-1.61-6.16-2.3-1.22-4.71-.45-6.16,1.61-8.16,11.69-12.01,25.68-16.84,38.92-.58,1.59-1.17,3.17-1.79,4.74-.31.78-.63,1.56-.94,2.34-.52,1.28.35-.8-.2.47-.22.51-.44,1.02-.67,1.53-.66,1.48-1.31,3.04-2.28,4.35.58-.78-.24.19-.32.28l-.29.26c.4-.31.39-.33-.03-.05l-.33.17c.52-.21.54-.22.06-.06-.23.07-.47.12-.71.17.6-.07.63-.08.11-.04-.37-.02-.74-.01-1.11-.03-1.17-.04.83.27-.31-.06-.75-.22-1.5-.43-2.25-.66-1.21-.39.77.39-.37-.14-.35-.16-.7-.33-1.04-.5-.8-.4-1.59-.82-2.36-1.26-1.34-.76-2.65-1.58-3.92-2.45-.64-.44-1.26-.9-1.89-1.36-1.03-.77.68.57-.32-.25-.4-.33-.81-.66-1.21-.99-2.82-2.38-5.4-5.04-7.72-7.92-.06-.08-.88-1.12-.28-.35-.33-.43-.64-.86-.96-1.29-.55-.76-1.08-1.54-1.6-2.33-1.04-1.59-1.99-3.23-2.89-4.9-1.11-2.08-4.17-2.89-6.16-1.61-2.12,1.36-2.8,3.93-1.61,6.16h0Z"/>
          <path class="cls-4" d="m145.06,125.82c.5-.46,1-.93,1.53-1.36-.63.51.05-.02.23-.13.28-.18.57-.33.85-.49-.67.38-.25.12-.01.04,1.03-.34-.8-.1.29,0-.13-.01-1.03-.1-.2.02-.54-.26-.59-.28-.14-.05l.3.18c-.84-.45-.05-.04.19.2.17.17.33.36.49.55-.58-.71-.08-.04.04.17.16.27.3.55.44.83-.35-.7-.03-.07.02.1.13.43.27.85.38,1.28.19.73.33,1.46.45,2.2,1,5.91,2.03,11.64,4.16,17.28s4.81,11.08,8.4,15.9c1.94,2.62,4.05,4.93,6.74,6.81s5.94,2.85,9.22,3.07c6.59.45,13.14-2.84,16.85-8.23,1.76-2.55,2.84-5.58,3.95-8.45s2.17-5.83,3.13-8.78c3.89-11.93,6.52-24.25,8.49-36.64.58-3.67,1.1-7.35,1.59-11.03.23-1.75.46-3.51.68-5.27.11-.84.22-1.68.33-2.52-.1.76.03-.22.06-.4.07-.53.15-1.07.23-1.6.98-6.77,2.3-13.53,4.79-19.93.85-2.2-.94-5.03-3.14-5.54-2.58-.59-4.62.79-5.54,3.14-2.21,5.68-3.5,11.64-4.44,17.65-.52,3.28-.94,6.58-1.37,9.88-.18,1.37-.35,2.74-.53,4.11-.2,1.51.06-.44-.06.44-.05.39-.11.78-.16,1.17-.12.86-.24,1.72-.36,2.58-1.78,12.28-4.13,24.5-7.64,36.41-.86,2.91-1.78,5.81-2.79,8.67-.51,1.47-1.05,2.92-1.6,4.38-.28.72-.56,1.45-.85,2.17-.11.28-.22.55-.33.83-.52,1.29.37-.78-.21.49s-1.24,2.49-1.99,3.69c-.09.14-.53.64-.04.07-.18.21-.36.42-.55.62-.28.3-.59.57-.89.85-.67.62.46-.23-.39.28-.58.35-1.15.68-1.75,1-.13.07-.77.33-.05.04-.33.13-.66.25-1,.36-.61.2-1.22.33-1.85.47-1.26.28.49.03-.27.04-.49,0-.98.07-1.47.06-.28,0-.56-.02-.84-.03-1.28-.03.48.15-.26-.02-.62-.14-1.23-.26-1.84-.45.06.02-1.2-.48-.65-.23s-.62-.34-.59-.32c-.23-.13-.46-.26-.68-.4-.13-.08-1.21-.84-.84-.56.51.39-.5-.44-.47-.41-.2-.18-.4-.36-.59-.55-.49-.47-.96-.96-1.41-1.48-.18-.21-.36-.42-.53-.63-.05-.06-.87-1.14-.32-.4-.41-.56-.82-1.13-1.2-1.7-1.61-2.39-3.04-4.9-4.3-7.49-.32-.65-.63-1.32-.93-1.98-.12-.27-.24-.53-.35-.8.3.7-.07-.17-.14-.34-.58-1.43-1.11-2.88-1.59-4.34-1.01-3.09-1.81-6.26-2.38-9.47-.62-3.51-.87-7-2.36-10.28-1.38-3.06-4.12-5.85-7.51-6.5-4.32-.84-7.79,1.6-10.79,4.39-1.73,1.61-1.75,4.76,0,6.36,1.85,1.7,4.52,1.71,6.36,0h0Z"/>
          <path class="cls-4" d="m219.04,67.91c0-.5,0-.99.04-1.49.01-.2.12-1.27.07-.87-.08.55.06-.31.08-.44.04-.21.08-.41.12-.61.12-.54.26-1.08.41-1.62.12-.4.25-.8.38-1.19.07-.2.14-.39.21-.59.04-.11.35-.92.16-.44-.17.44.09-.2.1-.23.09-.19.17-.38.26-.57.24-.51.49-1.01.75-1.51,1.8-3.42,4.06-6.59,6.35-9.69.26-.35.51-.69.77-1.03.53-.71.2-.26.08-.11.13-.17.26-.34.4-.51.62-.78,1.25-1.55,1.91-2.3,1.29-1.47,2.65-2.88,4.14-4.15.15-.13.94-.77.67-.55-.41.31.27-.19.37-.26.17-.12.33-.24.5-.35.77-.52,1.56-1,2.39-1.41.16-.08.34-.15.5-.24.58-.32-.68.24-.06.02.35-.12.69-.26,1.04-.37.88-.29,1.77-.46,2.67-.65-.9.19.04,0,.43-.02.48-.03.96-.03,1.44-.02.18,0,.36.01.54.03.15.01,1.13.18.47.04-.56-.12.6.14.8.19.46.12.9.3,1.36.43-.05-.01-.71-.34-.25-.11.27.14.54.26.8.4.37.21.71.46,1.07.67.55.32-.5-.48-.04-.03.22.22.47.42.69.63,1.7,1.63,4.7,1.82,6.36,0s1.81-4.62,0-6.36c-6.8-6.53-17.26-6.03-24.76-.97-3.83,2.58-6.98,5.91-9.8,9.53s-5.62,7.37-7.9,11.37c-2.69,4.71-4.55,9.92-4.53,15.39.01,2.35,2.06,4.61,4.5,4.5s4.51-1.98,4.5-4.5h0Z"/>
          <path class="cls-4" d="m250.37,39.01c.08.03.66.24.14.04-.55-.21.16.08.29.14.32.16.64.33.95.51.37.21.72.44,1.07.68.15.1.29.21.44.32.43.3-.53-.47.1.09s1.2,1.08,1.75,1.67c.3.32.6.65.89.99.12.15.25.29.37.44.06.07.55.71.25.3-.26-.34.45.63.57.8.26.38.52.76.77,1.14.5.78.98,1.57,1.44,2.37.96,1.69,1.84,3.43,2.68,5.18.43.9.85,1.81,1.26,2.72.19.42.38.84.56,1.26.12.28.25.56.37.85.08.18.27.64.09.2.84,1.99,1.62,4.01,2.37,6.03,1.48,4.01,2.81,8.07,4.03,12.16,1.41,4.71,2.67,9.46,3.86,14.23.57,2.28,3.26,3.88,5.54,3.14s3.76-3.09,3.14-5.54c-2.21-8.83-4.66-17.62-7.81-26.17-1.62-4.41-3.42-8.76-5.44-13.01-1.71-3.61-3.57-7.19-6-10.38-3.02-3.96-6.55-7.13-11.27-8.87-2.21-.82-5.03.91-5.54,3.14-.58,2.55.78,4.66,3.14,5.54h0Z"/>
          <path class="cls-4" d="m274.03,90.58c.92,13.94,7.75,26.11,14.86,37.78,2.06,3.39,7.05,2.6,8.22-1.07.56-1.75,1.18-3.49,1.87-5.19.08-.21.49-1.15.2-.49.17-.39.34-.77.51-1.16.4-.9.83-1.78,1.27-2.66,1.62-3.23,3.48-6.34,5.57-9.28.24-.34.48-.67.73-1,.14-.19.73-.98.29-.4.54-.7,1.11-1.39,1.68-2.07,1.14-1.36,2.5-2.55,3.62-3.91.29-.35.02-.05-.09.03.22-.17.47-.29.69-.44-.05.04-.66.22-.17.08.51-.15-.22.04-.27.04-.58-.04-.97-.17-1.42-.55.1.08.41.48.05,0-.4-.52.06.09.08.21.09.45-.08-.26-.1-.31.06.16.12.32.18.49.13.39.24.78.33,1.18.21.89.36,1.81.53,2.71.88,4.76,1.64,9.54,2.3,14.34.32,2.34,3.43,3.82,5.54,3.14,2.57-.83,3.49-3.03,3.14-5.54-.68-4.88-1.46-9.74-2.35-14.58s-2.76-10.01-8.47-10.1c-4.84-.07-8.54,5-11.26,8.42s-5.13,6.95-7.21,10.76c-2.41,4.41-4.38,9.09-5.91,13.88l8.22-1.07c-3.27-5.37-6.52-10.77-9.13-16.51-.15-.33-.3-.66-.44-.99-.58-1.3.31.79-.22-.52-.27-.67-.54-1.34-.79-2.02-.56-1.49-1.06-3-1.49-4.52s-.8-3.08-1.08-4.65c-.07-.36-.13-.72-.18-1.07-.05-.3-.13-.98-.05-.32-.1-.88-.18-1.75-.24-2.63-.15-2.34-1.96-4.61-4.5-4.5-2.31.1-4.67,1.98-4.5,4.5h0Z"/>
          <path class="cls-4" d="m314.57,118.02c1.11,5.69,2.08,11.4,2.89,17.13.05.32.09.65.14.97.01.08.15,1.08.08.62-.08-.57.13,1.02.11.86.04.32.08.65.12.97.18,1.46.36,2.92.52,4.38.32,2.84.6,5.69.85,8.54.95,10.97.28,22.8,6.41,32.48,2.88,4.55,6.91,8.62,11.94,10.7,5.52,2.29,11.17.2,15.38-3.64,2.02-1.84,3.65-4.11,5.17-6.36.69-1.02,1.36-2.05,2.05-3.07.32-.48.65-.95.98-1.42.21-.29.42-.58.63-.87-.38.5.05-.06.22-.26.75-.91,1.58-1.7,2.44-2.51-.56.52-.12.08.03-.03.22-.15.43-.3.66-.44s.45-.27.68-.4c.28-.16,1.07-.49.32-.2.47-.18.96-.29,1.44-.45,1.05-.34-.56-.04.08-.03.24,0,.49-.02.73-.02.34,0,1,.23.07-.02.24.06.48.12.72.19.31.08.56.38-.04-.03.3.2.63.36.93.56-.16-.1-.63-.59-.06-.02.22.22.45.43.65.66.16.18.64.85.13.12.19.26.37.53.53.81.35.56.61,1.15.93,1.73s-.21-.63.01.02c.14.4.29.79.43,1.19.92,2.78,1.41,5.69,2.24,8.49,1.71,5.77,4.82,11.13,9.14,15.34,1.69,1.65,4.71,1.81,6.36,0s1.8-4.61,0-6.36c-.82-.8-1.56-1.67-2.32-2.53-.47-.52.36.51-.05-.05-.2-.28-.4-.55-.6-.83-.35-.51-.69-1.03-1.01-1.56-.61-1.01-1.17-2.05-1.66-3.12-.12-.25-.23-.51-.34-.77.3.71.03.04-.02-.09-.24-.66-.48-1.32-.69-1.99-1.55-5-2.07-10.44-5.18-14.82-1.71-2.41-3.83-4.29-6.64-5.3-2.51-.9-5.52-.78-8,.14-5.45,2.02-8.89,6.36-12.02,11.05-.68,1.02-1.35,2.05-2.05,3.06-.33.47-.66.94-1.01,1.4.11-.15.49-.59-.06.06-.26.31-.52.62-.79.92-.71.79-1.48,1.56-2.33,2.21.66-.5.1-.09-.04,0-.22.14-.43.28-.65.41-.27.16-.57.29-.84.45-.43.27.66-.18-.13.05-.24.07-.47.15-.71.21-.06.01-1.19.15-.49.12.83-.04-1.45-.07-.72,0,.57.05-.26-.06-.4-.09-.33-.08-.65-.19-.97-.29-.19-.06-.7-.38-.06-.02-.3-.17-.62-.32-.92-.49-.55-.32-1.08-.67-1.59-1.04.64.46-.52-.45-.65-.56-.88-.77-1.69-1.61-2.46-2.49-.14-.16-1.05-1.36-.52-.63-.31-.43-.62-.86-.91-1.3-.7-1.06-1.32-2.17-1.86-3.32-.12-.24-.22-.49-.34-.73-.3-.63.21.62-.02-.05-.2-.58-.43-1.14-.62-1.73-.42-1.29-.74-2.61-.99-3.93-.41-2.15-.6-4.37-.78-7.15s-.34-5.61-.55-8.42c-1-13.02-2.77-25.99-5.28-38.81-.45-2.31-3.34-3.85-5.54-3.14-2.46.8-3.63,3.06-3.14,5.54h0Z"/>
        </g>
      </g>
    </g>
  </g>
</svg>